<svg xmlns="http://www.w3.org/2000/svg" xmlns:xlink="http://www.w3.org/1999/xlink" preserveAspectRatio="xMidYMid" width="30" height="30" viewBox="0 0 30 30">
    <defs>
        <style>
            .cls-1 {
            fill: #d59f72;
            fill-rule: evenodd;
            }
        </style>
    </defs>
    <path d="M30.000,15.000 C30.000,13.182 29.727,11.682 29.182,10.000 C29.000,15.318 23.182,19.773 20.000,22.500 L28.318,22.500 C29.182,20.000 30.000,17.591 30.000,15.000 M24.182,3.318 C21.682,1.318 18.500,-0.000 15.000,-0.000 C6.727,-0.000 -0.000,6.773 -0.000,15.000 C-0.000,23.227 6.727,30.000 15.000,30.000 C18.818,30.000 22.318,28.182 25.000,25.818 L14.182,25.818 L14.182,22.500 C20.773,16.818 25.000,13.318 25.000,10.000 C25.000,8.591 24.000,6.682 21.682,6.682 C19.864,6.682 18.364,8.364 18.364,12.500 L14.182,12.500 C13.273,7.227 16.455,2.909 21.864,2.909 C22.682,2.909 23.409,3.182 24.182,3.318 " class="cls-1"></path>
</svg>