<svg xmlns="http://www.w3.org/2000/svg" xmlns:xlink="http://www.w3.org/1999/xlink" preserveAspectRatio="xMidYMid" width="29.97" height="29.94" viewBox="0 0 29.97 29.94">
    <defs>
        <style>
            .cls-1 {
            fill: #d59f72;
            fill-rule: evenodd;
            }
        </style>
    </defs>
    <path d="M15.544,23.451 C15.557,23.462 15.569,23.474 15.580,23.487 C15.584,23.491 15.586,23.498 15.597,23.522 C15.466,23.499 15.346,23.481 15.227,23.457 C14.790,23.365 14.376,23.221 14.013,22.950 C13.598,22.639 13.359,22.225 13.300,21.715 C13.201,20.870 13.397,20.078 13.768,19.325 C14.255,18.336 14.979,17.542 15.830,16.857 C16.939,15.963 18.182,15.327 19.559,14.962 C19.962,14.855 20.379,14.803 20.790,14.727 C20.829,14.720 20.870,14.726 20.934,14.726 C20.607,14.861 20.302,14.979 20.004,15.112 C18.775,15.660 17.625,16.334 16.636,17.257 C15.975,17.874 15.423,18.573 15.072,19.414 C14.711,20.279 14.581,21.173 14.779,22.099 C14.891,22.627 15.139,23.085 15.544,23.451 ZM29.881,16.361 C29.730,17.958 29.337,19.494 28.689,20.964 C28.047,22.422 27.196,23.744 26.132,24.931 C24.691,26.539 22.983,27.780 21.009,28.655 C19.890,29.151 18.726,29.498 17.520,29.706 C16.386,29.900 15.245,29.967 14.098,29.899 C12.007,29.774 10.026,29.241 8.159,28.289 C6.893,27.643 5.745,26.831 4.708,25.859 C4.684,25.837 4.663,25.813 4.626,25.774 C4.783,25.759 4.919,25.747 5.055,25.735 C6.275,25.625 7.461,25.356 8.627,24.990 C10.005,24.557 11.331,23.996 12.628,23.363 C12.709,23.324 12.760,23.329 12.832,23.389 C13.637,24.065 14.564,24.460 15.605,24.598 C16.594,24.730 17.550,24.591 18.483,24.258 C19.919,23.745 21.143,22.904 22.214,21.832 C23.003,21.042 23.656,20.153 24.132,19.139 C24.437,18.490 24.650,17.813 24.730,17.099 C24.790,16.562 24.785,16.026 24.607,15.506 C24.312,14.644 23.692,14.129 22.837,13.871 C22.265,13.698 21.680,13.687 21.090,13.722 C20.273,13.770 19.477,13.924 18.698,14.170 C17.465,14.560 16.339,15.152 15.324,15.955 C14.509,16.599 13.813,17.352 13.263,18.236 C12.769,19.029 12.420,19.881 12.268,20.805 C12.207,21.173 12.191,21.549 12.160,21.922 C12.154,21.986 12.144,22.021 12.078,22.048 C10.710,22.588 9.324,23.066 7.886,23.384 C6.771,23.630 5.645,23.777 4.501,23.756 C3.929,23.746 3.361,23.696 2.800,23.580 C2.754,23.570 2.701,23.535 2.674,23.496 C1.804,22.249 1.139,20.901 0.683,19.451 C0.412,18.590 0.222,17.711 0.111,16.815 C-0.001,15.914 -0.037,15.011 0.017,14.105 C0.106,12.586 0.412,11.113 0.949,9.687 C1.545,8.105 2.387,6.667 3.468,5.369 C4.248,4.433 5.132,3.607 6.113,2.885 C7.175,2.104 8.320,1.476 9.548,0.999 C10.476,0.638 11.430,0.375 12.411,0.206 C13.393,0.038 14.382,-0.037 15.377,-0.008 C17.009,0.039 18.595,0.336 20.129,0.899 C21.626,1.447 23.000,2.214 24.247,3.206 C24.532,3.432 24.806,3.671 25.086,3.904 C25.082,3.917 25.079,3.929 25.075,3.941 C24.969,3.951 24.864,3.962 24.757,3.972 C22.797,4.160 20.935,4.722 19.127,5.478 C18.464,5.756 17.814,6.064 17.160,6.362 C17.096,6.391 17.069,6.364 17.031,6.328 C16.499,5.819 15.877,5.473 15.154,5.320 C14.287,5.137 13.450,5.255 12.636,5.589 C12.148,5.790 11.717,6.086 11.291,6.392 C10.269,7.129 9.280,7.909 8.329,8.736 C6.810,10.058 5.395,11.482 4.120,13.042 C3.927,13.278 3.997,13.569 4.262,13.644 C4.442,13.695 4.574,13.613 4.692,13.487 C4.940,13.220 5.188,12.952 5.443,12.691 C6.475,11.634 7.570,10.645 8.719,9.716 C9.594,9.009 10.496,8.338 11.423,7.700 C11.665,7.533 11.908,7.368 12.153,7.206 C12.335,7.087 12.523,7.094 12.671,7.217 C12.824,7.344 12.902,7.555 12.823,7.714 C12.775,7.811 12.690,7.901 12.601,7.965 C12.089,8.330 11.567,8.679 11.057,9.046 C9.834,9.929 8.665,10.877 7.552,11.894 C6.788,12.592 6.054,13.319 5.355,14.080 C5.282,14.159 5.213,14.258 5.188,14.359 C5.150,14.515 5.257,14.666 5.414,14.738 C5.548,14.799 5.710,14.765 5.822,14.647 C6.490,13.948 7.184,13.277 7.922,12.653 C8.649,12.038 9.390,11.439 10.143,10.857 C11.084,10.130 12.074,9.470 13.081,8.837 C13.159,8.788 13.247,8.741 13.337,8.724 C13.538,8.686 13.717,8.807 13.803,9.017 C13.877,9.203 13.827,9.395 13.657,9.509 C13.340,9.721 13.016,9.922 12.698,10.132 C11.719,10.778 10.768,11.463 9.849,12.190 C8.686,13.108 7.586,14.096 6.548,15.153 C6.518,15.184 6.486,15.215 6.456,15.247 C6.307,15.413 6.309,15.604 6.461,15.753 C6.623,15.911 6.815,15.910 6.981,15.748 C7.681,15.067 8.410,14.419 9.167,13.802 C10.723,12.534 12.380,11.412 14.110,10.396 C14.291,10.290 14.455,10.307 14.603,10.442 C14.760,10.586 14.828,10.812 14.740,10.973 C14.697,11.051 14.618,11.117 14.542,11.166 C13.776,11.655 12.999,12.127 12.242,12.628 C11.191,13.324 10.187,14.088 9.232,14.911 C8.696,15.374 8.179,15.861 7.657,16.340 C7.489,16.495 7.481,16.682 7.622,16.843 C7.764,17.005 7.971,17.017 8.145,16.875 C8.787,16.353 9.420,15.820 10.072,15.312 C10.867,14.694 11.706,14.138 12.561,13.605 C13.530,13.000 14.549,12.485 15.553,11.943 C16.637,11.359 17.345,10.466 17.604,9.244 C17.707,8.757 17.723,8.266 17.685,7.773 C17.680,7.704 17.701,7.677 17.760,7.654 C19.248,7.062 20.763,6.553 22.338,6.239 C23.297,6.048 24.266,5.939 25.246,5.950 C25.827,5.957 26.406,6.007 26.978,6.116 C27.031,6.126 27.092,6.164 27.123,6.207 C28.197,7.699 28.975,9.331 29.446,11.110 C29.692,12.043 29.845,12.990 29.911,13.952 C29.966,14.756 29.957,15.559 29.881,16.361 Z" class="cls-1"></path>
</svg>