<svg xmlns="http://www.w3.org/2000/svg" xmlns:xlink="http://www.w3.org/1999/xlink" preserveAspectRatio="xMidYMid" width="16" height="22" viewBox="0 0 16 22">
    <defs>
        <style>
            .cls-1 {
            fill: #d59f72;
            fill-rule: evenodd;
            }
        </style>
    </defs>
    <path d="M13.308,3.188 L12.805,5.714 C12.721,5.959 12.470,6.203 12.135,6.203 L7.446,6.203 C6.944,6.203 6.525,6.611 6.525,7.100 L6.525,7.670 C6.525,8.159 6.944,8.566 7.446,8.566 L11.382,8.566 C11.717,8.566 12.051,8.892 11.968,9.300 C11.884,9.707 11.465,11.663 11.465,11.907 C11.465,12.152 11.214,12.396 10.795,12.396 L7.614,12.396 C6.944,12.396 6.776,12.396 6.441,12.885 C6.022,13.374 2.505,17.693 2.505,17.693 C2.505,17.774 2.422,17.693 2.422,17.693 L2.422,3.025 C2.422,2.699 2.673,2.373 3.091,2.373 L12.805,2.373 C13.056,2.373 13.391,2.781 13.308,3.188 M13.978,0.010 L2.087,0.010 C0.412,0.010 -0.007,1.233 -0.007,1.966 L-0.007,20.626 C-0.007,21.522 0.496,21.848 0.747,21.930 C0.998,22.011 1.668,22.093 2.170,21.604 C2.170,21.604 7.865,15.085 7.948,15.004 C8.032,14.922 8.116,14.922 8.116,14.922 L11.717,14.922 C13.224,14.922 13.559,13.863 13.726,13.211 C13.894,12.722 15.485,5.144 15.903,2.781 C16.238,0.988 15.736,0.010 13.978,0.010 " class="cls-1"></path>
</svg>