<svg xmlns="http://www.w3.org/2000/svg" xmlns:xlink="http://www.w3.org/1999/xlink" preserveAspectRatio="xMidYMid" width="30" height="19" viewBox="0 0 30 19">
    <defs>
        <style>
            .cls-1 {
            fill: #d59f72;
            fill-rule: evenodd;
            }
        </style>
    </defs>
    <path d="M9.525,8.300 L9.525,11.500 L14.891,11.500 C14.692,12.900 13.202,15.600 9.525,15.600 C6.345,15.600 3.661,13.000 3.661,9.600 C3.661,6.200 6.245,3.600 9.525,3.600 C11.313,3.600 12.606,4.400 13.301,5.000 L15.885,2.500 C14.195,0.900 12.109,-0.000 9.525,-0.000 C4.258,-0.000 -0.016,4.200 -0.016,9.500 C-0.016,14.800 4.258,19.000 9.525,19.000 C14.991,19.000 18.568,15.200 18.568,9.800 C18.568,9.200 18.469,8.700 18.469,8.200 L9.425,8.200 L9.425,8.300 L9.525,8.300 ZM29.798,8.300 L27.015,8.300 L27.015,5.500 L24.432,5.500 L24.432,8.300 L21.649,8.300 L21.649,11.100 L24.432,11.100 L24.432,13.900 L27.214,13.900 L27.214,11.100 L29.997,11.100 L29.997,8.300 L29.798,8.300 Z" class="cls-1"></path>
</svg>