<svg xmlns="http://www.w3.org/2000/svg" xmlns:xlink="http://www.w3.org/1999/xlink" preserveAspectRatio="xMidYMid" width="24" height="24" viewBox="0 0 24 24">
    <defs>
        <style>
            .cls-1 {
            fill: #d59f72;
            fill-rule: evenodd;
            }
        </style>
    </defs>
    <path d="M23.928,16.948 C23.869,18.225 23.667,19.097 23.370,19.860 C23.063,20.649 22.653,21.319 21.986,21.986 C21.319,22.653 20.650,23.063 19.860,23.370 C19.097,23.667 18.225,23.869 16.948,23.928 C15.668,23.986 15.259,24.000 12.000,24.000 C8.741,24.000 8.332,23.986 7.052,23.928 C5.775,23.869 4.903,23.667 4.140,23.370 C3.350,23.063 2.681,22.653 2.014,21.986 C1.347,21.319 0.937,20.649 0.630,19.860 C0.333,19.097 0.131,18.225 0.072,16.948 C0.014,15.668 0.000,15.259 0.000,12.000 C0.000,8.741 0.014,8.332 0.072,7.052 C0.131,5.775 0.333,4.903 0.630,4.140 C0.937,3.350 1.347,2.681 2.014,2.014 C2.681,1.347 3.350,0.937 4.140,0.630 C4.903,0.333 5.775,0.130 7.052,0.072 C8.332,0.014 8.741,-0.000 12.000,-0.000 C15.259,-0.000 15.668,0.014 16.948,0.072 C18.225,0.130 19.097,0.333 19.860,0.630 C20.650,0.937 21.319,1.347 21.986,2.014 C22.653,2.681 23.063,3.350 23.370,4.140 C23.667,4.903 23.869,5.775 23.928,7.052 C23.986,8.332 24.000,8.741 24.000,12.000 C24.000,15.259 23.986,15.668 23.928,16.948 ZM21.783,7.144 C21.729,5.972 21.533,5.336 21.369,4.912 C21.151,4.351 20.890,3.951 20.470,3.530 C20.049,3.110 19.649,2.849 19.088,2.631 C18.665,2.467 18.028,2.271 16.856,2.217 C15.589,2.160 15.209,2.147 12.000,2.147 C8.791,2.147 8.411,2.160 7.144,2.217 C5.972,2.271 5.336,2.467 4.912,2.631 C4.351,2.849 3.951,3.110 3.530,3.530 C3.110,3.951 2.850,4.351 2.631,4.912 C2.467,5.336 2.271,5.972 2.217,7.144 C2.160,8.411 2.147,8.791 2.147,12.000 C2.147,15.209 2.160,15.589 2.217,16.856 C2.271,18.028 2.467,18.664 2.631,19.088 C2.850,19.649 3.110,20.049 3.530,20.470 C3.951,20.890 4.351,21.151 4.912,21.369 C5.336,21.533 5.972,21.729 7.144,21.783 C8.411,21.840 8.791,21.853 12.000,21.853 C15.209,21.853 15.589,21.840 16.856,21.783 C18.028,21.729 18.665,21.533 19.088,21.369 C19.649,21.151 20.049,20.890 20.470,20.470 C20.890,20.049 21.151,19.649 21.369,19.088 C21.533,18.664 21.729,18.028 21.783,16.856 C21.840,15.589 21.853,15.209 21.853,12.000 C21.853,8.791 21.840,8.411 21.783,7.144 ZM18.395,7.042 C17.601,7.042 16.958,6.399 16.958,5.605 C16.958,4.812 17.601,4.168 18.395,4.168 C19.188,4.168 19.832,4.812 19.832,5.605 C19.832,6.399 19.188,7.042 18.395,7.042 ZM12.000,18.158 C8.599,18.158 5.842,15.401 5.842,12.000 C5.842,8.599 8.599,5.842 12.000,5.842 C15.401,5.842 18.158,8.599 18.158,12.000 C18.158,15.401 15.401,18.158 12.000,18.158 ZM12.000,7.989 C9.785,7.989 7.989,9.785 7.989,12.000 C7.989,14.215 9.785,16.011 12.000,16.011 C14.215,16.011 16.011,14.215 16.011,12.000 C16.011,9.785 14.215,7.989 12.000,7.989 Z" class="cls-1"></path>
</svg>