<svg xmlns="http://www.w3.org/2000/svg" xmlns:xlink="http://www.w3.org/1999/xlink" preserveAspectRatio="xMidYMid" width="30" height="30" viewBox="0 0 30 30">
    <defs>
        <style>
            .cls-1 {
            fill: #d59f72;
            fill-rule: evenodd;
            }
        </style>
    </defs>
    <path d="M15.000,0.000 C6.716,0.000 0.000,6.716 0.000,15.000 C0.000,21.355 3.954,26.782 9.534,28.968 C9.403,27.781 9.284,25.961 9.586,24.665 C9.858,23.495 11.345,17.209 11.345,17.209 C11.345,17.209 10.896,16.311 10.896,14.982 C10.896,12.896 12.105,11.339 13.610,11.339 C14.890,11.339 15.508,12.300 15.508,13.452 C15.508,14.739 14.689,16.664 14.266,18.446 C13.912,19.940 15.015,21.157 16.487,21.157 C19.153,21.157 21.202,18.346 21.202,14.288 C21.202,10.697 18.622,8.186 14.937,8.186 C10.669,8.186 8.164,11.387 8.164,14.695 C8.164,15.985 8.660,17.367 9.280,18.118 C9.402,18.267 9.420,18.397 9.384,18.548 C9.270,19.022 9.017,20.041 8.967,20.250 C8.902,20.524 8.750,20.583 8.466,20.450 C6.592,19.578 5.421,16.839 5.421,14.639 C5.421,9.908 8.859,5.562 15.332,5.562 C20.535,5.562 24.579,9.270 24.579,14.225 C24.579,19.395 21.320,23.555 16.796,23.555 C15.276,23.555 13.847,22.766 13.358,21.833 C13.358,21.833 12.605,24.697 12.423,25.399 C12.084,26.702 11.170,28.335 10.559,29.331 C11.962,29.766 13.454,30.000 15.000,30.000 C23.284,30.000 30.000,23.284 30.000,15.000 C30.000,6.716 23.284,0.000 15.000,0.000 Z" class="cls-1"></path>
</svg>