<svg xmlns="http://www.w3.org/2000/svg" xmlns:xlink="http://www.w3.org/1999/xlink" preserveAspectRatio="xMidYMid" width="23.907" height="20.4" viewBox="0 0 23.907 20.4">
    <defs>
        <style>
            .cls-1 {
            fill: #d59f72;
            fill-rule: evenodd;
            }
        </style>
    </defs>
    <path d="M11.460,5.357 L11.559,6.277 L10.670,6.174 C7.506,5.766 4.738,4.335 2.464,1.983 L1.278,0.757 L0.981,1.574 C0.388,3.517 0.784,5.561 2.069,6.890 C2.761,7.606 2.563,7.708 1.377,7.299 C0.981,7.197 0.586,7.094 0.586,7.094 C0.487,7.197 0.883,8.832 1.179,9.548 C1.673,10.468 2.563,11.286 3.552,11.899 L4.441,12.308 L3.453,12.308 C2.464,12.308 2.464,12.308 2.563,12.717 C2.860,13.841 4.244,15.170 5.825,15.681 L6.913,16.090 L6.023,16.703 C4.639,17.521 3.057,18.032 1.377,18.032 C0.586,18.032 -0.007,18.134 -0.007,18.134 C-0.007,18.339 2.069,19.361 3.354,19.770 C7.012,20.894 11.361,20.486 14.723,18.441 C17.095,17.010 19.369,14.148 20.456,11.490 C21.050,10.059 21.643,7.401 21.643,6.072 C21.643,5.254 21.742,5.152 22.631,4.130 C23.224,3.517 23.719,2.903 23.818,2.699 C24.016,2.392 24.016,2.392 23.126,2.699 C21.643,3.210 21.445,3.210 22.137,2.392 C22.631,1.779 23.323,0.757 23.323,0.450 C23.323,0.348 23.027,0.450 22.730,0.654 C22.434,0.859 21.742,1.063 21.248,1.268 L20.358,1.574 L19.468,0.961 C18.974,0.654 18.380,0.246 17.985,0.143 C17.095,-0.061 15.711,-0.061 14.920,0.246 C12.646,0.961 11.263,3.108 11.460,5.357 Z" class="cls-1"></path>
</svg>