<svg xmlns="http://www.w3.org/2000/svg" xmlns:xlink="http://www.w3.org/1999/xlink" preserveAspectRatio="xMidYMid" width="39" height="19.03" viewBox="0 0 39 19.03">
    <defs>
        <style>
            .cls-1 {
            fill: #d59f72;
            fill-rule: evenodd;
            }
        </style>
    </defs>
    <path d="M30.978,1.542 C30.978,1.542 24.447,-0.966 19.458,0.450 C14.469,1.867 12.375,5.239 12.375,5.239 C12.375,5.239 10.097,7.855 8.405,8.075 C6.755,8.288 5.504,8.414 -0.000,8.119 L-0.000,10.935 C5.504,10.638 6.753,10.767 8.403,10.981 C10.095,11.198 12.377,13.815 12.377,13.815 C12.377,13.815 14.466,17.187 19.454,18.604 C24.445,20.020 30.979,17.511 30.979,17.511 C38.815,14.593 38.988,9.744 38.988,9.744 L38.988,9.311 C38.988,9.311 38.815,4.460 30.978,1.542 ZM23.395,3.103 C22.944,3.116 22.520,3.153 22.121,3.209 C20.394,3.453 19.147,4.048 18.306,4.536 C18.290,4.548 18.271,4.558 18.253,4.567 C18.252,4.567 18.251,4.568 18.250,4.568 L18.249,4.568 C18.189,4.598 18.121,4.615 18.050,4.615 C17.791,4.615 17.579,4.395 17.579,4.123 C17.579,3.927 17.689,3.758 17.849,3.679 L17.847,3.678 C18.488,3.351 19.225,3.050 20.060,2.813 C20.873,2.582 21.822,2.466 22.880,2.466 C25.284,2.466 27.687,3.064 29.041,3.472 C29.041,3.472 26.170,2.935 23.395,3.103 Z" class="cls-1"></path>
</svg>