<svg xmlns="http://www.w3.org/2000/svg" width="27" height="20" viewBox="0 0 20 16">
  <defs>
    <style>
      .cls-1 {
        fill: #808080;
        fill-rule: evenodd;
      }
    </style>
  </defs>
  <path id="basket" class="cls-1" d="M4322,157h-14v1h14v1h-15v-2l-1-8-1-2h-2v-1h3l1,3h16Zm-15-7,1,6h13l1-6h-15Zm10,1h1v4h-1v-4Zm-3,0h1v4h-1v-4Zm-3,0h1v4h-1v-4Zm-1.49,8.006a1.5,1.5,0,1,1-1.52,1.5A1.506,1.506,0,0,1,4309.51,159.006ZM4309.5,161a0.5,0.5,0,1,0,0-1A0.5,0.5,0,1,0,4309.5,161Zm10.01-1.994a1.5,1.5,0,1,1-1.52,1.5A1.506,1.506,0,0,1,4319.51,159.006ZM4319.5,161a0.5,0.5,0,1,0,0-1A0.5,0.5,0,1,0,4319.5,161Z" transform="translate(-4303 -146)"/>
</svg>
