<svg xmlns="http://www.w3.org/2000/svg" width="13" height="16" viewBox="0 0 13 16">
  <defs>
    <style>
      .cls-1 {
        fill: red;
        fill-rule: evenodd;
      }
    </style>
  </defs>
  <path id="delete" class="cls-1" d="M4376.23,469.983h-3.07v-0.34a1.636,1.636,0,0,0-1.63-1.643h-2.06a1.636,1.636,0,0,0-1.63,1.643v0.34h-3.07a0.769,0.769,0,0,0-.77.774V474h13v-3.242A0.775,0.775,0,0,0,4376.23,469.983Zm-4.18,0h-3.1v-0.34a0.521,0.521,0,0,1,.52-0.524h2.06a0.528,0.528,0,0,1,.52.524v0.34ZM4365,484h11V473h-11v11Zm1-1h9v-9h-9v9Zm2-7.454a0.53,0.53,0,0,1,.5-0.56,0.538,0.538,0,0,1,.51.56v5.9a0.538,0.538,0,0,1-.51.56,0.53,0.53,0,0,1-.5-0.56v-5.9Zm1.99,0a0.512,0.512,0,1,1,1.02,0v5.9a0.512,0.512,0,1,1-1.02,0v-5.9Zm2,0a0.512,0.512,0,1,1,1.02,0v5.9a0.512,0.512,0,1,1-1.02,0v-5.9ZM4365,473h11v-2h-11v2Z" transform="translate(-4364 -468)"/>
</svg>
