<svg xmlns="http://www.w3.org/2000/svg" xmlns:xlink="http://www.w3.org/1999/xlink" version="1.1" x="0px" y="0px" width="18px" height="18px" viewBox="0 0 31.99 31.99" style="enable-background:new 0 0 31.99 31.99;" xml:space="preserve">
<g>
	<g>
		<path d="M1.22,13.233c0-6.638,5.399-12.037,12.037-12.037c6.637,0,12.037,5.399,12.037,12.037c0,0.945-0.121,1.86-0.326,2.744    l1.281-0.268c0.153-0.804,0.241-1.628,0.241-2.476C26.49,5.937,20.554,0,13.257,0C5.96,0,0.024,5.937,0.024,13.233    c0,6.869,5.26,12.526,11.963,13.167c0,0-0.241-0.535-0.449-1.243C5.801,24.243,1.22,19.223,1.22,13.233z" fill="#d59f72"/>
		<path d="M8.688,3.553L8.153,3.824l0.492,0.975C8.819,4.7,9,4.612,9.179,4.524L8.688,3.553z" fill="#d59f72"/>
		<path d="M2.247,12.833v1.2h1.374c-0.012-0.199-0.03-0.397-0.03-0.6c0-0.203,0.019-0.4,0.03-0.6H2.247z" fill="#d59f72"/>
		<path d="M14.102,3.552V2.179h-1.2v1.373c0.199-0.012,0.396-0.029,0.599-0.029S13.9,3.54,14.102,3.552z" fill="#d59f72"/>
		<path d="M23.398,8.365l-1.083,0.55c0.092,0.178,0.182,0.356,0.261,0.542L23.671,8.9L23.398,8.365z" fill="#d59f72"/>
		<path d="M19.345,4.11l-0.596,0.926c0.17,0.107,0.336,0.216,0.498,0.332l0.602-0.933L19.345,4.11z" fill="#d59f72"/>
		<path d="M5.378,7.762l-0.972-0.67L4.067,7.587l0.986,0.68C5.158,8.097,5.265,7.927,5.378,7.762z" fill="#d59f72"/>
		<path d="M24.755,13.61v-0.777h-1.373c0.012,0.129,0.029,0.257,0.029,0.389c0,0.131-0.018,0.258-0.029,0.388H24.755z" fill="#d59f72"/>
		<path d="M7.152,23.031l0.504,0.324l0.874-1.356c-0.174-0.101-0.346-0.201-0.512-0.312L7.152,23.031z" fill="#d59f72"/>
		<path d="M4.944,18.418c-0.101-0.172-0.197-0.348-0.288-0.527l-1.325,0.674L3.603,19.1L4.944,18.418z" fill="#d59f72"/>
		<polygon points="19.518,14.024 19.518,12.842 13.922,12.842 13.922,4.595 13.08,4.595 13.08,12.842 13.08,13.233 13.08,13.763     8.087,19.241 8.219,19.361 13.083,14.024   " fill="#d59f72"/>
		<path d="M27.606,17.227c-2.354-0.396-4.298,0.683-5.079,1.207c0.033-0.687,0.067-1.445,0.086-1.885    c0.022-0.593,1.065-0.907,1.571-1.388c0.3-0.286-0.008-1.041-0.008-1.041s-2.608,1.157-2.539,2.276    c0.035,0.545,0.043,1.308,0.039,1.947c-0.731-0.486-2.277-1.285-4.457-1.182c-3.008,0.143-4.981,2.354-4.925,5.633    c0.056,4.547,4.091,8.389,6.906,8.389c0.692,0,1.26-0.089,1.699-0.197l-0.053,0.326l0.518-0.267l0.243,0.944l0.325-0.811    l0.533,0.566V31.18l0.709,0.217l-0.168-0.51c0.453,0.153,1.131,0.305,2.035,0.305c2.814,0,6.866-3.043,6.922-7.59    C32.022,20.32,30.675,17.742,27.606,17.227z M16.445,26.822c-1.139-1.458-0.795-3.528-0.795-3.528s0.761,1.917,1.543,3.104    c0.783,1.188,2.124,2.137,2.124,2.137S17.583,28.28,16.445,26.822z" fill="#d59f72"/>
	</g>
</g>
</svg>
