<svg xmlns="http://www.w3.org/2000/svg" xmlns:xlink="http://www.w3.org/1999/xlink" preserveAspectRatio="xMidYMid" width="18" height="18" viewBox="0 0 18 18">
  <defs>
    <style>
      .cls-1 {
        fill: gray;
        opacity: 0.5;
        fill-rule: evenodd;
      }
    </style>
  </defs>
  <path d="M17.998,15.990 L12.620,10.631 C13.339,9.548 13.760,8.252 13.760,6.859 C13.760,3.079 10.674,0.003 6.880,0.003 C3.086,0.003 -0.001,3.079 -0.001,6.859 C-0.001,10.639 3.086,13.714 6.880,13.714 C8.248,13.714 9.519,13.310 10.591,12.622 L15.984,17.995 L17.998,15.990 ZM1.423,6.859 C1.423,3.860 3.871,1.421 6.880,1.421 C9.889,1.421 12.337,3.860 12.337,6.859 C12.337,9.857 9.889,12.295 6.880,12.295 C3.871,12.295 1.423,9.857 1.423,6.859 Z" class="cls-1"/>
</svg>
