<svg xmlns="http://www.w3.org/2000/svg" xmlns:xlink="http://www.w3.org/1999/xlink" preserveAspectRatio="xMidYMid" width="17.877" height="18" viewBox="0 0 17.877 18">
  <defs>
    <style>
      .cls-1 {
        fill: gray;
        fill-rule: evenodd;
      }
    </style>
  </defs>
  <path d="M16.935,17.998 L16.866,17.998 L1.003,17.998 L0.936,17.998 L-0.007,17.998 C0.491,13.498 4.302,9.998 8.935,9.998 C13.567,9.998 17.378,13.498 17.876,17.998 L16.935,17.998 ZM8.935,10.998 C5.209,10.998 2.091,13.550 1.202,16.998 L16.668,16.998 C15.779,13.550 12.661,10.998 8.935,10.998 ZM8.935,9.997 C6.174,9.997 3.934,7.759 3.934,4.997 C3.934,2.236 6.174,-0.003 8.935,-0.003 C11.696,-0.003 13.935,2.236 13.935,4.997 C13.935,7.759 11.696,9.997 8.935,9.997 ZM8.935,0.997 C6.726,0.997 4.935,2.788 4.935,4.997 C4.935,7.207 6.726,8.997 8.935,8.997 C11.144,8.997 12.935,7.207 12.935,4.997 C12.935,2.788 11.144,0.997 8.935,0.997 Z" class="cls-1"/>
</svg>
