<svg xmlns="http://www.w3.org/2000/svg" viewBox="0 0 344 154.44"><defs><style>.cls-1{fill:#ec008c;}.cls-1,.cls-2{fill-rule:evenodd;}.cls-2{fill:#d49e72;}</style></defs><title>logo</title><g id="Layer_2" data-name="Layer 2"><g id="Layer_1-2" data-name="Layer 1"><path class="cls-1" d="M102.57,71.09h.24c1.7-1.85,9-9.28,10.43-11s2.49-2.89,2.49-3.74c0-.55-.2-.9-.7-1s-.64-.21-.64-.5.24-.44.79-.44c1.05,0,3.8.15,5.15.15,1.54,0,4.29-.15,5.83-.15.5,0,.85.1.85.44s-.25.45-.75.45a9.65,9.65,0,0,0-2.88.55A15.92,15.92,0,0,0,118,59.6c-1.54,1.5-9.08,9-10.78,10.78,1.8,2.35,11.59,12.88,13.53,14.73,2.2,2.09,4.44,4.34,7.14,5.39a8.6,8.6,0,0,0,3.09.75c.35,0,.65.1.65.39s-.25.5-1.19.5h-4.34c-1.5,0-2.4,0-3.45-.1-2.69-.25-4-1.35-6.19-3.24s-12-13.48-13.08-14.93l-.55-.75h-.24v4.54c0,4.6,0,8.54.14,10.68.1,1.4.55,2.5,1.8,2.69a21.72,21.72,0,0,0,2.44.2c.4,0,.65.14.65.39s-.4.5-1,.5c-2.79,0-5.94-.14-7.18-.14s-4.29.14-6.29.14c-.64,0-1-.14-1-.5s.2-.39.8-.39a8.28,8.28,0,0,0,1.8-.2c1-.2,1.25-1.3,1.45-2.74.25-2.09.25-6,.25-10.63V68.89c0-7.59,0-9-.1-10.58s-.5-2.5-2.15-2.85a10.41,10.41,0,0,0-2-.15c-.54,0-.84-.1-.84-.45s.35-.44,1.1-.44c2.64,0,5.79.15,7,.15s4.34-.15,6-.15c.7,0,1,.1,1,.44s-.3.45-.7.45a7.49,7.49,0,0,0-1.39.15c-1.35.25-1.75,1.1-1.85,2.85-.1,1.6-.1,3-.1,10.58v2.2Z"/><path class="cls-1" d="M135.21,81.47c-.25,0-.3.05-.39.3l-2.35,5.69a7.63,7.63,0,0,0-.65,2.59c0,.75.4,1.2,1.74,1.2h.65c.55,0,.65.2.65.45s-.25.45-.7.45c-1.44,0-3.49-.14-4.89-.14-.45,0-2.8.14-5.09.14-.55,0-.8-.1-.8-.45s.15-.45.5-.45.89-.05,1.29-.05c2-.3,2.75-1.59,3.64-3.75l11.48-26.7c.5-1.2.85-1.7,1.3-1.7.65,0,.85.4,1.3,1.35,1,2.34,8.39,19.71,11.18,26.15,1.7,3.85,2.95,4.39,3.75,4.55a10.55,10.55,0,0,0,1.64.15c.4,0,.6.15.6.45s-.25.45-1.89.45-4.75,0-8.44-.1c-.8,0-1.29,0-1.29-.35s.09-.4.55-.45a.67.67,0,0,0,.39-1L146,81.77a.42.42,0,0,0-.45-.3Zm9.38-2.34c.2,0,.25-.1.2-.25l-4.14-10.78c-.05-.15-.11-.4-.2-.4s-.2.24-.25.4L136,78.82c-.1.2,0,.3.15.3Z"/><path class="cls-1" d="M167.45,62.65l-6.54.15c-2.55,0-3.6.35-4.25,1.3a4.81,4.81,0,0,0-.75,1.45c-.1.35-.2.55-.5.55s-.4-.25-.4-.7c0-.7.85-4.79,1-5.14.09-.55.25-.8.5-.8s.8.35,1.89.5a42.31,42.31,0,0,0,4.4.2h17.82a20.1,20.1,0,0,0,3-.2c.7-.1,1.05-.2,1.2-.2.3,0,.35.25.35.89,0,.9-.1,4-.1,5.14,0,.45-.15.7-.4.7s-.45-.2-.5-.85l0-.45c-.1-1.1-1.25-2.39-5.19-2.45l-5.54-.1V79.82c0,3.89,0,7.24.24,9.08.15,1.2.4,2,1.69,2.2a16.74,16.74,0,0,0,2.25.15c.5,0,.7.25.7.45s-.35.45-.85.45c-2.89,0-5.84-.14-7.08-.14-1,0-4,.14-5.74.14-.55,0-.85-.14-.85-.45s.15-.45.7-.45a6.16,6.16,0,0,0,1.55-.15c.9-.2,1.15-1,1.3-2.25.2-1.79.2-5.14.2-9V62.65Z"/><path class="cls-1" d="M193.2,72.33c0-6.44,0-7.64,0-9s-.5-1.9-1.89-2.3a8,8,0,0,0-1.75-.15c-.45,0-.75-.14-.75-.45s.35-.4,1-.4c2.3,0,5.09.1,6,.1,1.49,0,5.49-.1,6.83-.1,2.79,0,6,.25,8.33,1.8A7.41,7.41,0,0,1,214,67.69c0,3.14-1.79,5.94-6.08,9.38,3.89,4.79,7,8.63,9.63,11.28,2.44,2.44,4,2.64,4.69,2.79a3.94,3.94,0,0,0,1.05.1.51.51,0,0,1,.55.45c0,.35-.3.44-.85.44h-4.19a9.56,9.56,0,0,1-4.8-.84c-1.89-1-3.54-2.95-6-6.24-1.75-2.3-3.6-5.14-4.15-5.79a1,1,0,0,0-.8-.3l-3.94-.1a.31.31,0,0,0-.35.35v.6c0,3.94,0,7.24.24,9,.16,1.25.35,2,1.7,2.25a16.52,16.52,0,0,0,2.14.15.51.51,0,0,1,.55.45c0,.3-.36.44-.9.44-2.54,0-6.19-.14-6.84-.14-.85,0-3.64.14-5.39.14-.55,0-.84-.14-.84-.44s.14-.45.69-.45a6.38,6.38,0,0,0,1.55-.15c.91-.2,1.16-1,1.3-2.25.2-1.79.2-5.14.2-9V72.33Zm5.6,3.29c0,.45.1.6.4.75a12.13,12.13,0,0,0,3.34.4c1.75,0,2.35-.15,3.09-.7,1.35-.95,2.85-2.8,2.85-6.29,0-6-4.1-7.54-6.7-7.54a15.93,15.93,0,0,0-2.59.15c-.3.1-.4.25-.4.6V75.63Z"/><path class="cls-1" d="M227.43,72.33c0-6.44,0-7.64,0-9s-.55-1.95-1.5-2.25a5.58,5.58,0,0,0-1.6-.2c-.45,0-.7-.1-.7-.5,0-.25.35-.35,1-.35,1.64,0,4.64.1,5.89.1,1.1,0,3.94-.1,5.64-.1.56,0,.9.1.9.35,0,.4-.25.5-.7.5a6,6,0,0,0-1.3.15c-1.2.2-1.55.79-1.65,2.29-.11,1.35-.11,2.55-.11,9v7.49c0,4.09,0,7.49.2,9.28.15,1.15.45,1.8,1.75,2a16.5,16.5,0,0,0,2.24.15c.51,0,.7.25.7.45s-.35.45-.85.45c-2.9,0-5.89-.14-7.09-.14-1,0-4,.14-5.74.14-.55,0-.84-.14-.84-.45s.15-.45.69-.45a6.43,6.43,0,0,0,1.54-.15c.9-.2,1.15-.8,1.3-2,.19-1.75.19-5.14.19-9.23V72.33Z"/><path class="cls-1" d="M250.5,86.36c.1,3.29.65,4.29,1.5,4.59a7.45,7.45,0,0,0,2.3.3c.5,0,.74.2.74.45s-.39.45-1,.45c-2.84,0-4.89-.14-5.69-.14-.39,0-2.5.14-4.73.14-.6,0-1,0-1-.45s.3-.45.7-.45a9,9,0,0,0,2-.2c1.15-.3,1.3-1.44,1.35-5.14l.4-25.15c0-.85.3-1.45.75-1.45s1.15.65,1.9,1.4c.55.55,7.14,7.29,13.53,13.53,3,2.95,8.83,8.93,9.49,9.53h.2l-.45-18.87c0-2.59-.44-3.34-1.49-3.74a7.31,7.31,0,0,0-2.3-.25c-.55,0-.7-.2-.7-.45s.45-.4,1.1-.4c2.3,0,4.64.1,5.59.1.5,0,2.15-.1,4.29-.1.6,0,1,.05,1,.4s-.25.45-.75.45a4.39,4.39,0,0,0-1.35.15c-1.2.35-1.54,1.1-1.6,3.49l-.49,26.76c0,.95-.35,1.34-.7,1.34a2.6,2.6,0,0,1-1.8-.9C270.51,89.2,265,84,260.43,79.52,255.64,74.93,251,69.79,250.14,69H250l.5,17.32Z"/><path class="cls-1" d="M291.61,81.47c-.25,0-.29.05-.39.3l-2.34,5.69a7.75,7.75,0,0,0-.66,2.59c0,.75.4,1.2,1.75,1.2h.65c.54,0,.65.2.65.45s-.25.45-.7.45c-1.44,0-3.49-.14-4.89-.14-.45,0-2.79.14-5.09.14-.54,0-.8-.1-.8-.45a.43.43,0,0,1,.5-.45c.4,0,.9-.05,1.3-.05,2-.3,2.74-1.59,3.64-3.75l11.48-26.7c.5-1.2.85-1.7,1.3-1.7.65,0,.85.4,1.3,1.35,1.05,2.34,8.39,19.71,11.18,26.15,1.7,3.85,3,4.39,3.75,4.55a10.6,10.6,0,0,0,1.64.15c.4,0,.6.15.6.45s-.26.45-1.9.45-4.74,0-8.44-.1c-.79,0-1.3,0-1.3-.35s.1-.4.55-.45a.67.67,0,0,0,.4-1l-3.39-8.54a.42.42,0,0,0-.45-.3ZM301,79.12c.2,0,.25-.1.2-.25l-4.15-10.78c0-.15-.09-.4-.19-.4s-.2.24-.25.4l-4.25,10.74c-.09.2,0,.3.15.3Z"/><path class="cls-2" d="M64.57,89.65c-5,.93-12.69,1-16.61-.93v-5.2c3.64,2.51,13,3.08,16-.37,1.52,1,.17,4.42.56,6.49Z"/><path class="cls-2" d="M48.68,91.74c-.3,18.33-8.33,31.53-11.43,47.05-.76-.2-1.48-2.37-1.48-3.51,0-1.57,1.08-3.6,1.66-5.53,3.64-12.15,7.55-26.33,11.25-38Z"/><path class="cls-2" d="M45.08,91.37c1,3.09-2.58,5.88-3.13,9.23-1.12-3.8,2-6.5,3.13-9.23Z"/><path class="cls-2" d="M52.8,91.37c.94,10.2,0,20.81.42,31.3.44,10.08,2.23,21-1.36,30.25-1.8-4-1.66-9-1.72-14C50,124,51.34,107.17,52.8,91.37Z"/><path class="cls-2" d="M63,93c7.22,10.27,15.31,32.14,21.67,43.1-1.19.45-2-.72-3.47-.56C77,123.89,67,104.67,63,93Z"/><path class="cls-2" d="M68.38,82.23c3.39.13,5.42,2.44,7.67,4.38-2.36-1.79-8.67-1.79-7.67-4.38Z"/><path class="cls-2" d="M56.18,91.74c1.26.37,1.8,1.69,2.21,2.77,6.55,17.3,12.08,37,17.9,55.17,0,.21-.19.1-.19,0-1.28-2.52-5.25-3.88-5.91-6.83-.38-1.69.19-3.29,0-4.79-1-8-4.48-15.71-6.82-23.43s-5-15.39-7.2-22.88Z"/><path class="cls-2" d="M43.68,87c0,2.58-2,4.24-3.11,6.37C38.21,97.89,36.35,103,33.44,107c-3.89,5.34-8.88,10.3-10.26,17.55-1.85-2.09-.77-7.28.47-9.16-1.26-.72-4.09.14-5.12-.78,3.47-4.88,8-6.14,11.95-10.87a36.48,36.48,0,0,0,4.5-7c2-4,3-9.56,8.7-9.78Z"/><path class="cls-2" d="M67.63,85.77c-.31,3-.32,3.93,7.59,14.84,2.88,4,6.57,7.63,7.6,13,1.37-1.55.57-5.4-.35-6.79.93-.53,3,.11,3.8-.58-2.57-3.62-5.89-4.55-8.86-8.06A27,27,0,0,1,74.07,93c-1.52-2.94-2.21-7.09-6.44-7.25Z"/><path class="cls-2" d="M78.55,21.64c.66,1.8,5.92,2,5.08-1.15-1.72-.31-4.31-.48-5.08,1.15Z"/><path class="cls-2" d="M69.19,23.47c-.69,2.19.73,5.42,3.27,5.1.09-2.61-1.23-4.75-3.27-5.1Z"/><path class="cls-2" d="M77.14,26.06c1.11.64,3.95.12,4.59-.9-.52-2.08-5.33-2.06-4.59.9Z"/><path class="cls-2" d="M70.36,33.1c.25-2.62-1.52-5-3.23-4.92-.57,2.06.61,5.38,3.23,4.92Z"/><path class="cls-2" d="M74.67,29.26c.75,1.65,5.81,1.4,4.85-1.47a5.51,5.51,0,0,0-4.85,1.47Z"/><path class="cls-2" d="M65.33,33.37c-.59,2,.5,5.56,3.23,4.92-.2-2.85-1.22-4.56-3.23-4.92Z"/><path class="cls-2" d="M72,36.06a17.66,17.66,0,0,0,4.86-1.47c.39-3.46-6.23-1.52-4.86,1.47Z"/><path class="cls-2" d="M63.27,38.07c-.51,2.38.72,5.56,3.26,5.09-.21-2.91-1.16-4.79-3.26-5.09Z"/><path class="cls-2" d="M70.33,40.64c2.28-.41,4.73-.7,4.64-2.84-1.89-.38-5.41,0-4.64,2.84Z"/><path class="cls-2" d="M68.7,45.92c2.29-.41,4.73-.7,4.64-2.84-1.89-.38-5.42,0-4.64,2.84Z"/><path class="cls-2" d="M61.8,43.22c-1.33,1.69.24,5.81,2.92,5.15a5.33,5.33,0,0,0-2.92-5.15Z"/><path class="cls-2" d="M60,48.41c-1,1.88.56,5.36,3.06,4.95.24-2.5-1.43-5.06-3.06-4.95Z"/><path class="cls-2" d="M64.23,53.84c2.72.56,5.79-.75,5.61-3.78-2.82-.48-4.22,1.63-5.61,3.78Z"/><path class="cls-2" d="M59.39,54.38c1.8.44,1.88,4.19,1.73,5.84-2.21-.14-3.45-4.5-1.73-5.84Z"/><path class="cls-2" d="M56.77,64.61c1.53.09,2.15,3.13,2.27,4.49-1.82.21-3.47-3.14-2.27-4.49Z"/><path class="cls-2" d="M63.21,66.81c-1.18-.29-2.37,1.87-2.78,2.87,1.34.59,3.37-1.57,2.78-2.87Z"/><path class="cls-2" d="M56.45,71.44c1.18.07,1.66,2.41,1.74,3.45-1.4.16-2.67-2.42-1.74-3.45Z"/><path class="cls-2" d="M62.47,71.31c-1.15-.27-2.27,1.83-2.65,2.81,1.29.56,3.25-1.56,2.65-2.81Z"/><path class="cls-2" d="M67,59.57c-2.72-.78-3.9,1.67-4.75,3.2,2.07,1.43,4.91-1.07,4.75-3.2Z"/><path class="cls-2" d="M89.65,3.23c-2.54.57-4,3.28-5.11,5.37,3.06-.2,3.05-3.94,5.11-5.37Z"/><path class="cls-2" d="M84.15,9.36c-2.55,1.48-4.68,3.26-4.16,7,2.86-1.25,4.06-3.71,4.16-7Z"/><path class="cls-2" d="M74.52,13.86c-1.09,1.38-1.62,7.24,1.87,6.36.62-2.13-.27-5.46-1.87-6.36Z"/><path class="cls-2" d="M72.2,19c-1,1.24-1.45,6.5,1.69,5.71.55-1.91-.25-4.91-1.69-5.71Z"/><path class="cls-2" d="M89.42,12.73c-3.32,1.18-6.82,3.52-8.46,6.43,3.5-1.65,5.44-4.43,8.46-6.43Z"/><path class="cls-2" d="M77.24,6.41C78.5,9.7,79,13.89,77.86,17c-1-3.73-.17-7-.61-10.6Z"/><path class="cls-2" d="M59.66,74c.12,2.71-.63,8-1.5,9.41-.49-13.93,4-25.13,7.74-36.46A174.34,174.34,0,0,1,77.13,20.46c.59-1.1.93-2.89,2.48-3.2C71.35,32.71,65.38,49.8,60.8,67.92A24.75,24.75,0,0,0,59.66,74Z"/><path class="cls-2" d="M28.49,25.88c-.56,1.84-5.84,2.31-5.17-.88,1.71-.41,4.3-.71,5.17.88Z"/><path class="cls-2" d="M38,27.22c.81,2.17-.43,5.49-3,5.29-.23-2.62,1-4.84,3-5.29Z"/><path class="cls-2" d="M30.14,30.26c-1.08.69-4,.34-4.66-.66.41-2.12,5.24-2.35,4.66.66Z"/><path class="cls-2" d="M37.33,37c-.38-2.62,1.26-5.14,3-5.12.68,2.05-.33,5.44-3,5.12Z"/><path class="cls-2" d="M32.8,33.33c-.65,1.7-5.76,1.72-5-1.21a5.51,5.51,0,0,1,5,1.21Z"/><path class="cls-2" d="M42.4,37c.7,2-.2,5.62-3,5.12,0-2.87,1-4.65,3-5.12Z"/><path class="cls-2" d="M35.29,39.72a17.81,17.81,0,0,1-4.95-1.21c-.58-3.45,6.17-1.86,4.95,1.21Z"/><path class="cls-2" d="M44.72,41.58c.63,2.36-.42,5.62-3,5.29,0-2.93.91-4.87,3-5.29Z"/><path class="cls-2" d="M37.77,44.53c-2.32-.3-4.79-.45-4.81-2.6,1.88-.49,5.45-.26,4.81,2.6Z"/><path class="cls-2" d="M39.69,49.75c-2.31-.29-4.79-.45-4.81-2.6,1.88-.49,5.44-.27,4.81,2.6Z"/><path class="cls-2" d="M46.48,46.66c1.43,1.62.07,5.84-2.66,5.32a5.35,5.35,0,0,1,2.66-5.32Z"/><path class="cls-2" d="M48.57,51.78c1.09,1.83-.27,5.41-2.81,5.14-.37-2.49,1.17-5.15,2.81-5.14Z"/><path class="cls-2" d="M52.08,64.49C53,66,51.85,69,49.74,68.75c-.31-2.07,1-4.28,2.34-4.27Z"/><path class="cls-2" d="M53.92,74.6c.91,1.52-.23,4.49-2.33,4.27-.31-2.07,1-4.29,2.33-4.27Z"/><path class="cls-2" d="M43.73,57.51c-2.75.41-5.77-1.07-5.42-4.1,2.86-.33,4.15,1.87,5.42,4.1Z"/><path class="cls-2" d="M51.21,59.09c1.12,1.5-1.22,4.46-2.4,5.63-1.62-1.53.2-5.7,2.4-5.63Z"/><path class="cls-2" d="M42,63.08c2.69-.93,4,1.47,4.94,3-2,1.55-5-.81-4.94-3Z"/><path class="cls-2" d="M16.35,8c2.58.44,4.15,3.08,5.42,5.12-3.09,0-3.28-3.8-5.42-5.12Z"/><path class="cls-2" d="M22.21,13.85c2.64,1.35,4.88,3,4.56,6.77-2.94-1.1-4.28-3.5-4.56-6.77Z"/><path class="cls-2" d="M32.12,17.85c1.17,1.33,2,7.18-1.54,6.5-.73-2.11,0-5.5,1.54-6.5Z"/><path class="cls-2" d="M35.79,22.48c.67,1.35.09,6.35-2.69,5-.15-1.9,1.19-4.53,2.69-5Z"/><path class="cls-2" d="M49.41,73.25s1.57,5.17,1.5,6.15a30.06,30.06,0,0,0,.51,4c.22,1.2-.21.75.67,1.41-.25-14-5.13-23-9.52-34.19a175,175,0,0,0-12.71-26c-.65-1.08-1.08-2.86-2.66-3.08,9.13,15.07,16,31.92,21.62,49.87l.6,1.83Z"/><path class="cls-2" d="M47.65,75.64c1.52-.26,2.82,2.57,3.25,3.88-1.73.62-4.12-2.29-3.25-3.88Z"/><path class="cls-2" d="M46,70.22c1.38-.36,2.81,2.16,3.3,3.34-1.56.71-4-1.8-3.3-3.34Z"/><path class="cls-2" d="M46.93,85c-.09,1.51-3.32,2.12-3.44,0-.11-2,3.33-2.66,3.44,0Z"/><path class="cls-2" d="M49.19,15.81c0,2.11,1.79,5.2,3.87,3.88-.87-2.68-2.13-4.05-3.87-3.88Z"/><path class="cls-2" d="M48.65,22.06c.17,2.4,2,5.13,3.93,4-.89-2.74-2.14-4.29-3.93-4Z"/><path class="cls-2" d="M55.39,24.27c1.77-1,3.7-1.9,3.09-3.93-1.64.12-4.43,1.44-3.09,3.93Z"/><path class="cls-2" d="M55.76,19c1.76-1,3.7-1.9,3.09-3.93-1.65.13-4.43,1.44-3.09,3.93Z"/><path class="cls-2" d="M54.95,29.91c1.76-1,3.7-1.91,3.09-3.93-1.64.12-4.43,1.44-3.09,3.93Z"/><path class="cls-2" d="M48.39,28.13c-.68,2,1.64,5.5,3.67,4.17a5.12,5.12,0,0,0-3.67-4.17Z"/><path class="cls-2" d="M48.14,34.62c-.34,2.05,1.79,5,3.74,3.94-.43-2.45-2.43-4.47-3.74-3.94Z"/><path class="cls-2" d="M54.24,38.15a4,4,0,0,0,3.38-5.33c-2.41.44-2.91,2.87-3.38,5.33Z"/><path class="cls-2" d="M48.88,41.3c-.69,1.64,1.76,4.13,2.94,5.08,1.1-1.75-1.12-5.51-2.94-5.08Z"/><path class="cls-2" d="M49.85,49.55c1.27-.32,2.54,2.43,3,3.71-1.43.67-3.62-2.11-3-3.71Z"/><path class="cls-2" d="M56,49.55c-1.27-.32-2.54,2.43-3,3.71,1.43.67,3.62-2.11,3-3.71Z"/><path class="cls-2" d="M51.44,56.17c1.27-.31,2.54,2.43,3,3.71-1.43.68-3.62-2.1-3-3.71Z"/><path class="cls-2" d="M56.83,56.17c-1.27-.31-2.54,2.43-3,3.71,1.43.68,3.62-2.1,3-3.71Z"/><path class="cls-2" d="M57,42c-2.42,0-2.78,2.62-3.1,4.31,2,.83,3.76-2.31,3.1-4.31Z"/><path class="cls-2" d="M59.36,0c-1.94,1.21-2.42,4.17-2.85,6.47C59,5.48,58,1.9,59.36,0Z"/><path class="cls-2" d="M56.35,6.85c-1.72,2.08-3,4.34-1.68,7.76,2-1.94,2.41-4.61,1.68-7.76Z"/><path class="cls-2" d="M61.59,7a15.48,15.48,0,0,0-5.33,8.36c2.45-2.49,3.36-5.66,5.33-8.36Z"/><path class="cls-2" d="M49.3,5.6a18.17,18.17,0,0,1,3.14,10c-1.76-3.3-1.89-6.67-3.14-10Z"/><path class="cls-2" d="M80.39,40.18c-.94,1.59-1,4.69,1.11,4.65.58-2.4.26-4-1.11-4.65Z"/><path class="cls-2" d="M77.14,44.59c-1,1.87-.87,4.72,1.1,4.8.58-2.45.35-4.17-1.1-4.8Z"/><path class="cls-2" d="M81.16,49.31c1.77.07,3.62.27,4.1-1.52-1.28-.65-4-.94-4.1,1.52Z"/><path class="cls-2" d="M83.82,45.56c1.77.07,3.63.27,4.1-1.52-1.28-.66-4-.95-4.1,1.52Z"/><path class="cls-2" d="M78.26,53.31c1.77.07,3.62.27,4.09-1.52-1.28-.66-4-.95-4.09,1.52Z"/><path class="cls-2" d="M74.18,49c-1.4,1.16-1.28,4.85.83,4.78A4.47,4.47,0,0,0,74.18,49Z"/><path class="cls-2" d="M71,53.72c-1.19,1.38-.94,4.53,1,4.64.8-2,.23-4.44-1-4.64Z"/><path class="cls-2" d="M74,59.14a3.45,3.45,0,0,0,4.95-2.43c-2-.77-3.48.81-4.95,2.43Z"/><path class="cls-2" d="M68.54,59c-1.26.91-.58,3.88-.13,5.13,1.62-.81,1.68-4.62.13-5.13Z"/><path class="cls-2" d="M65.5,65.63c1.09.35.78,3,.52,4.12-1.38-.15-1.74-3.22-.52-4.12Z"/><path class="cls-2" d="M63.67,71.28c1.1.35.78,3,.53,4.12-1.38-.15-1.75-3.23-.53-4.12Z"/><path class="cls-2" d="M74.24,63.29C72.46,62.16,71,64,70,65.09c1.14,1.55,3.85,0,4.27-1.8Z"/><path class="cls-2" d="M95.18,33c-2,0-3.71,2-5.07,3.53,2.28.39,3.21-2.72,5.07-3.53Z"/><path class="cls-2" d="M89.82,36.77c-2.24.77-4.24,1.86-4.79,5,2.4-.52,3.89-2.34,4.79-5Z"/><path class="cls-2" d="M93.65,39.26a13.56,13.56,0,0,0-7.78,3.8c3-.74,5.09-2.69,7.78-3.8Z"/><path class="cls-2" d="M85.13,32.62a15.86,15.86,0,0,1-2.22,8.88c.19-3.27,1.64-5.83,2.22-8.88Z"/><path class="cls-2" d="M65.25,73.91a28.88,28.88,0,0,0,1.47-3.45c1.32-.19,3.6.13,4-1.91a3.24,3.24,0,0,0-3.14.54c7.89-14.16,7.82-15.65,16.69-26.66-.8.12-1.6,1.25-1.6,1.25a83.1,83.1,0,0,0-6.37,8.63C70.74,61,64.94,69.81,61.79,81.43c.79-.42,2.2-4.84,2.61-5.81,1.32-.19,3.57-.21,4-2.25a3.27,3.27,0,0,0-3.14.54Z"/><path class="cls-2" d="M24.59,38.11c1,1.66,1.19,4.93-1.08,4.94-.66-2.52-.36-4.22,1.08-4.94Z"/><path class="cls-2" d="M28.12,42.7c1.06,2,1,5-1.06,5.09-.66-2.57-.46-4.4,1.06-5.09Z"/><path class="cls-2" d="M24,47.77c-1.86.11-3.82.36-4.36-1.52,1.34-.72,4.16-1.08,4.36,1.52Z"/><path class="cls-2" d="M21.08,43.87c-1.87.11-3.82.36-4.36-1.51,1.34-.72,4.16-1.08,4.36,1.51Z"/><path class="cls-2" d="M27.13,51.93c-1.86.11-3.82.36-4.36-1.51,1.34-.72,4.16-1.08,4.36,1.51Z"/><path class="cls-2" d="M31.34,47.28c1.5,1.19,1.46,5.09-.78,5.06a4.72,4.72,0,0,1,.78-5.06Z"/><path class="cls-2" d="M34.75,52.2c1.29,1.43,1.09,4.76-.94,4.92-.89-2.12-.34-4.68.94-4.92Z"/><path class="cls-2" d="M31.77,58a3.65,3.65,0,0,1-5.28-2.46c2.09-.86,3.69.78,5.28,2.46Z"/><path class="cls-2" d="M37.51,57.76c1.35.93.69,4.09.25,5.41-1.73-.81-1.87-4.84-.25-5.41Z"/><path class="cls-2" d="M40.87,64.66c-1.15.39-.76,3.16-.47,4.36,1.45-.19,1.77-3.44.47-4.36Z"/><path class="cls-2" d="M42.92,70.58c-1.15.39-.76,3.16-.47,4.36,1.45-.19,1.77-3.44.47-4.36Z"/><path class="cls-2" d="M31.58,62.38c1.86-1.24,3.46.65,4.55,1.81-1.17,1.66-4.07.08-4.55-1.81Z"/><path class="cls-2" d="M8.82,30.89c2.11,0,4,2,5.43,3.61-2.4.46-3.45-2.8-5.43-3.61Z"/><path class="cls-2" d="M14.56,34.72c2.37.76,4.51,1.87,5.17,5.19-2.55-.5-4.16-2.38-5.17-5.19Z"/><path class="cls-2" d="M10.56,37.42a14.3,14.3,0,0,1,8.3,3.84c-3.15-.71-5.42-2.73-8.3-3.84Z"/><path class="cls-2" d="M19.42,30.23a16.75,16.75,0,0,0,2.53,9.33c-.28-3.44-1.86-6.12-2.53-9.33Z"/><path class="cls-2" d="M18,99.79l.09-.86C11.23,92,7.47,84.47,7.48,76.65c0-8.71,4.65-17,13.09-24.63L20,51.65C11.54,59.3,6.84,67.74,6.8,76.65c0,8.19,4,16,11.22,23.14Z"/><path class="cls-2" d="M234.42,18.38l0,0-1.32-.2c-1.47-.24-2.95-.46-4.44-.68L225.12,17l-3.94-.52-4-.49-3.64-.4-4.28-.43-3.68-.33-4.2-.33-4-.28-3.81-.23-4.78-.24-3-.12q-3-.11-6-.18l-1.81,0q-3.84-.07-7.72-.08h0q-3.89,0-7.73.08l-1.81,0c-2,0-4,.1-6,.18l-3,.12-4.79.24-3.82.23-4,.28-4.19.33-3.68.33-4.28.43-3.65.4-4,.49-3.93.52-3.52.51c-1.49.22-3,.45-4.44.68l-1.32.2,0,0q-9.07,1.5-17.55,3.4l-.22.74q8.79-2,18.25-3.54c1.29-.22,2.62-.4,3.93-.61s2.35-.37,3.54-.54,2.48-.33,3.72-.49,2.59-.35,3.9-.51,2.51-.28,3.77-.42,2.64-.3,4-.44,2.74-.25,4.11-.37,2.52-.24,3.8-.34c1.54-.12,3.1-.22,4.65-.32,1.13-.08,2.26-.17,3.4-.24,1.82-.11,3.65-.19,5.49-.27l2.69-.13c2.21-.09,4.43-.15,6.65-.2l1.67,0q4-.08,8-.08h1c2.67,0,5.33,0,8,.08l1.67,0c2.23.05,4.45.11,6.65.2l2.7.13c1.83.09,3.67.17,5.48.27,1.15.07,2.26.16,3.4.24,1.55.1,3.11.2,4.65.32,1.28.1,2.53.23,3.8.34s2.75.23,4.11.37,2.66.29,4,.44,2.52.27,3.76.42,2.6.34,3.9.51,2.49.32,3.71.49,2.36.36,3.54.54,2.63.39,3.92.61c19.34,3.18,36.76,7.77,51.39,13.42,29.47,11.38,47.56,27.1,47.54,44.25s-18.07,32.87-47.54,44.25c-14.11,5.46-30.84,9.9-49.36,13.07-1.25.21-2.5.42-3.77.62l-3.87.59-3.93.56-3.89.51-4.1.49-3.89.42c-1.43.15-2.87.29-4.31.42-1.29.12-2.57.24-3.86.34-1.51.13-3,.24-4.55.34-1.26.09-2.51.19-3.77.26-1.63.1-3.27.18-4.91.26l-3.58.18c-1.85.08-3.72.13-5.59.18l-3,.09q-4.28.09-8.63.09h-.23q-4.34,0-8.63-.09l-3-.09c-1.87-.05-3.74-.1-5.59-.18l-3.57-.18c-1.64-.08-3.28-.16-4.91-.26-1.26-.08-2.52-.17-3.77-.26-1.53-.1-3-.22-4.56-.34-1.29-.1-2.58-.22-3.86-.34-1.44-.13-2.89-.27-4.31-.42l-3.89-.42-4.11-.49-3.89-.51-3.93-.56-3.87-.59c-1.27-.2-2.52-.41-3.76-.62q-8.94-1.53-17.3-3.45c0,.23,0,.46,0,.69q7.08,1.62,14.6,3h0l.81.14q2.9.51,5.86,1l2,.32c2,.3,3.93.57,5.91.84l3,.39c1.78.22,3.57.44,5.38.64l3.11.34q2.84.29,5.71.55l2.71.23c1.91.16,3.83.3,5.76.43l2.66.17q3.05.19,6.14.33l2.33.1q3.46.14,7,.23l1.56,0q4.26.09,8.58.09h0q4.32,0,8.58-.09l1.57,0q3.5-.09,7-.23l2.32-.1q3.09-.14,6.14-.33l2.65-.17q2.91-.19,5.77-.43l2.71-.23q2.88-.26,5.71-.55l3.11-.34q2.71-.3,5.38-.64l3-.39c2-.27,4-.54,5.91-.84l2-.32q2.95-.47,5.85-1l.81-.14h0c55.92-10,94.77-31.84,94.87-57.53-.11-26.33-40.93-48.64-99.12-58.27Z"/><path class="cls-2" d="M293.18,27.69c-16.08-6.85-35.29-12.33-56.63-16l0,0-.63-.1-2.33-.39L232,10.9l-2.21-.35L228,10.3l-2.11-.3-1.86-.26-2-.27-2-.25-2-.24-2-.24-2-.21L212,8.3,210,8.11l-2.19-.2-1.9-.17-2.23-.18-1.9-.15-2.27-.16-1.89-.13L195.33,7l-1.89-.11-2.36-.11-1.88-.09-2.4-.09-1.87-.07-2.49-.06-1.8,0-2.78,0-1.53,0-4.15,0h-.38l-4.15,0-1.53,0-2.78,0-1.8,0-2.49.06-1.87.07-2.4.09-1.87.09-2.36.11L148.67,7l-2.32.14-1.89.13-2.28.16-1.89.15-2.24.18-1.89.17L134,8.11l-1.89.19-2.15.22L128,8.73,125.9,9l-2,.24-2,.25-2,.27L118,10l-2.06.3-1.78.27L112,10.9l-1.63.27-2.26.38-.66.11,0,0q-8.91,1.54-17.31,3.5c-.23,1-.48,2-.74,3q9.46-2.24,19.63-4l1.42-.24,2.43-.39,1.38-.22,2.5-.38,1.37-.2,2.54-.35,1.39-.19,2.54-.32,1.46-.18,2.5-.29,1.54-.17,2.44-.25,1.64-.17,2.34-.22,1.77-.16,2.23-.18,1.91-.15,2.11-.15,2.06-.14,2-.12,2.22-.13,1.83-.09L155,9.45l1.7-.06,2.54-.09,1.59,0,2.65-.07,1.64,0,2.62,0,3.86,0h.81l3.86,0,2.62,0,1.64,0,2.65.07,1.6,0,2.53.09,1.7.06,2.39.11,1.83.09,2.22.13,2,.12,2.06.14,2.11.15,1.92.15,2.22.18,1.78.16,2.33.22,1.65.17,2.42.25,1.55.17,2.48.29,1.47.18,2.52.32,1.41.19,2.52.35,1.39.2,2.5.38,1.39.22,2.43.39,1.42.24c21.6,3.67,41,9.17,57.1,16,30.71,13.06,49.21,31,49.12,50.1.09,19.08-18.4,37-49.12,50.1-16.15,6.89-35.59,12.39-57.24,16.07l-.72.12-3,.48-1.19.19-2.76.41-1.47.21-2.61.36-1.72.22-2.45.31-2,.24-2.2.26-2.94.31-1.36.14-4.37.4-1.24.1-3.28.26-1.46.1-3.11.21-1.52.09-3.11.17-1.52.07-3.17.14-1.48.06-3.31.1-1.38,0-3.6.07h-1.12c-1.57,0-3.16,0-4.75,0s-3.17,0-4.75,0h-1.12l-3.6-.07-1.38,0-3.3-.1-1.49-.06-3.17-.14-1.52-.07-3.1-.17-1.52-.09-3.1-.21-1.47-.1-3.26-.26-1.26-.1-4.37-.4-1.44-.15-2.87-.3-2.24-.26-2-.24-2.48-.32-1.68-.22-2.64-.37-1.43-.2-2.8-.42-1.14-.18-3-.49-.64-.11q-11.45-1.94-22-4.55c.06.94.12,1.91.17,2.92q5,1.2,10.12,2.27l.08,0c3.7.76,7.48,1.46,11.31,2.11l.48.08,3.21.52,1,.15,3,.45,1.19.17,2.92.4,1.3.17,2.92.37,1.25.15,3,.35.69.07q3.77.4,7.62.75h0l2.83.23,1.66.13,2.6.18,1.92.13,2.51.15,2.06.12,2.45.12,2.18.09,2.38.09,2.36.07,2.24.06,2.72,0,1.92,0,4.67,0h0l4.67,0,1.92,0,2.72,0,2.24-.06,2.36-.07,2.37-.09,2.18-.09,2.45-.12,2.06-.12,2.52-.15,1.91-.13,2.61-.18,1.64-.13q5.34-.43,10.56-1l.62-.06,3.07-.36,1.21-.14,2.95-.37,1.26-.17,3-.41,1.16-.17,3-.46.91-.14,3.25-.53.44-.07c3.84-.65,7.64-1.35,11.34-2.11l.08,0A247.45,247.45,0,0,0,293.18,133c31-13.24,50.74-31.62,50.82-52.67-.08-21.06-19.78-39.44-50.82-52.68Z"/><path class="cls-2" d="M16.73,112.42l.36-3.5C7.82,100.08,2.75,90.37,2.8,80.37c0-10.46,5.5-20.58,15.57-29.75L15.93,49C5.79,58.45,0,69,0,80.37,0,92,6.09,102.83,16.73,112.42Z"/><path class="cls-2" d="M54.11,56c.06.55.39,6.62.48,6.89-1.32-3.82-1.78-12.32-2.13-15.64A124.24,124.24,0,0,1,52,34.74a97,97,0,0,1,1.62-17.4c.13-.75,0-1.83.86-2.38a122.48,122.48,0,0,0-.76,32.61S54,55.19,54.11,56Z"/><path class="cls-2" d="M40.59,72.45A28.88,28.88,0,0,1,39.12,69c-1.32-.19-3.6.13-4-1.91a3.24,3.24,0,0,1,3.14.54C30.34,53.46,30.41,52,21.54,41c.8.12,1.6,1.25,1.6,1.25a83.1,83.1,0,0,1,6.37,8.63C35.1,59.54,40.91,68.35,44.06,80c-.79-.42-2.2-4.84-2.61-5.81-1.32-.19-3.57-.21-4-2.25a3.27,3.27,0,0,1,3.14.54Z"/></g></g></svg>