<svg id="Layer_1" data-name="Layer 1" xmlns="http://www.w3.org/2000/svg" viewBox="0 0 951.14 429.93"><defs><style>.cls-1{fill:#da2882;}.cls-2{fill:#c09050;}</style></defs><path class="cls-1" d="M441.29,251.93a24.46,24.46,0,0,1-5.06-.46q-5.55-1.14-10.61-12.46-18.8-43.77-29.88-70.28c-1.13-2.45-2.13-3.67-3-3.67s-2.08,1.53-3.37,4.58L359.1,241.41a26.76,26.76,0,0,1-3.92,7,43.64,43.64,0,0,1-8.26-5.2c-1.87-1.44-5-4.2-9.52-8.31q-4.48-4-19.19-19.3Q303,199.8,299.45,195.37q9.53-9.65,30.25-29,8-7.51,15.12-10a23.73,23.73,0,0,1,8.12-1.48c1.4,0,2.11-.4,2.11-1.2s-.8-1.21-2.39-1.21q-2.1,0-8.12.2c-4,.14-6.77.2-8.26.2-1.31,0-3.81-.06-7.49-.2s-6-.2-6.94-.2c-1.49,0-2.24.4-2.24,1.21,0,.62.64,1.07,1.9,1.34s1.89,1.16,1.89,2.68-2.34,4.78-7,10q-16.68,17-29.27,29.49h-.7v-5.9q0-24,.28-28.62T289,156.5q1.95-1.6,6.86-1.61c1.31,0,2-.4,2-1.2s-1-1.21-2.95-1.21c-1.67,0-4.67.07-8.95.2s-7,.2-8,.2c-.74,0-3.5-.06-8.26-.2s-8.54-.2-11.34-.2c-2.06,0-3.08.4-3.08,1.21s.79,1.2,2.38,1.2a28.44,28.44,0,0,1,5.46.41q5.59,1.2,6,7.63.29,4.42.28,28.42v23.59q0,23.31-.7,28.54c-.56,4.48-1.91,6.93-4.06,7.38-1.4.08-2.8.22-4.2.4-2.06.18-3.08.58-3.08,1.2,0,.9.93,1.34,2.8,1.34,2,0,5.3-.06,9.73-.2s7.07-.19,7.92-.19,3.65.06,8.46.19,8.71.2,11.7.2c1.77,0,2.66-.44,2.66-1.34,0-.71-.61-1.07-1.82-1.07a48.21,48.21,0,0,1-6.86-.53c-3.09-.45-4.76-2.86-5.05-7.24q-.4-5.76-.41-28.68v-12.2h.7l1.54,2q2.79,3.75,17.08,19.57,15.4,17,19.61,20.5a54.34,54.34,0,0,0,8.12,6,21.94,21.94,0,0,0,9.24,2.67c.41,0,.92.07,1.44.1a3.59,3.59,0,0,0,1.8.35q2.7,0,8.93-.18h9.68c.25,0,.44,0,.66,0l1.28,0Q371,254,373,254c1.37,0,2.05-.38,2.05-1.14s-.6-.91-1.8-.91h-1.81c-3.22,0-4.82-1.18-4.82-3.55a20.91,20.91,0,0,1,1.81-7l6.5-16.34c.24-.61.61-.92,1.09-.92h26.87a1.24,1.24,0,0,1,1.21.8l9.64,24.23c.56,1.38.2,2.25-1.08,2.63-1.13.08-1.68.42-1.68,1s1.2.84,3.61.91q7.83.24,22.78.23a26.25,26.25,0,0,0,4.33-.23c.81-.15,1.21-.45,1.21-.91,0-.61-.53-.91-1.57-.91m-40.73-33.49H378.38c-.48,0-.64-.26-.48-.8L389,189.53c.16-.69.4-1,.72-1s.44.35.6,1l10.85,28.22q.24.69-.6.69"/><path class="cls-1" d="M511,166.9a48.21,48.21,0,0,0-5.67.51,48.64,48.64,0,0,1-5.91.51H451.73c-3.7,0-7.71-.19-12.06-.57a10.45,10.45,0,0,1-3.25-.74,8.14,8.14,0,0,0-1.92-.63c-.57,0-1.05.73-1.45,2.17q-2.54,10.07-2.53,13.15c0,1.22.36,1.82,1.08,1.82s1.09-.45,1.33-1.37a12.32,12.32,0,0,1,2-4q2.17-3.08,11.7-3.31l18-.46v46.86q0,19.31-.61,24.35-.72,5.72-3.49,6.28c-1.21.08-2.41.19-3.62.34-1.77.15-2.65.5-2.65,1,0,.76.8,1.14,2.41,1.14s4.56,0,8.37-.17,6.1-.17,6.82-.17,3.29.06,7.71.17,8.15.17,11.21.17c1.52,0,2.29-.38,2.29-1.14s-.65-.91-1.93-.91a47.23,47.23,0,0,1-6.15-.46c-2.65-.38-4.21-2.44-4.7-6.17q-.6-5-.6-24.46V174l15.19.34q13.62.35,14.22,6.4l.12,1.26c.16,1.53.6,2.29,1.33,2.29.55,0,.88-.57,1-1.7s.18-3.45.3-6.93.18-5.6.18-6.36c0-1.59-.32-2.38-1-2.38"/><path class="cls-1" d="M614.92,251.81l-2.78-.22q-6.87-1.26-13.5-7.78-4.7-4.56-11.69-12.91-1.32-1.38-14.46-17.14,15.91-12.24,15.91-25.61a18,18,0,0,0-2.89-9.82,17.15,17.15,0,0,0-5.31-5.84q-7.59-4.91-22.17-4.91-1.81,0-8.38.17t-8.62.18q-.72,0-6.75-.18t-9.76-.17c-1.77,0-2.65.35-2.65,1s.68,1,2,1a24.85,24.85,0,0,1,4.7.34q4.82,1,5.18,6.51.24,3.78.24,24.24v20.11q0,19.89-.6,24.34c-.48,3.82-1.65,5.91-3.49,6.29-1.21.08-2.42.19-3.62.34-1.77.15-2.65.5-2.65,1,0,.76.8,1.14,2.41,1.14,1.85,0,4.62,0,8.32-.17s5.82-.17,6.38-.17l6.93.17c4.46.12,8.06.17,10.79.17,1.61,0,2.41-.38,2.41-1.14s-.48-.92-1.44-.92a49.8,49.8,0,0,1-5.91-.45q-4-.45-4.7-6.25-.6-5-.61-24.28v-1.59c0-.61.33-.91,1-.91h10.49a2.79,2.79,0,0,1,2.17.8Q568.63,228,573.81,235q10.62,13.83,16.52,16.8,4.21,2.17,12.9,2.17h11.45q2.28,0,2.28-1.14c0-.53-.68-.88-2-1M567.07,211c-1.85,1.3-4.7,1.94-8.56,1.94a29.28,29.28,0,0,1-9.16-1.14c-.73-.23-1.09-.91-1.09-2.05V175a1.44,1.44,0,0,1,.61-1.37q1.08-.69,6.87-.69a18,18,0,0,1,11.93,4.35q6.51,5.72,6.51,16.57,0,12.23-7.11,17.14"/><path class="cls-1" d="M653.76,251.93a46.27,46.27,0,0,1-6.09-.46c-2.87-.38-4.47-2.25-4.78-5.6q-.5-4.58-.48-25V200.72q0-20.46.23-24.22.38-5.83,4.42-6.52a22.3,22.3,0,0,1,3.75-.34c1.15,0,1.73-.38,1.73-1.14s-.85-.92-2.54-.92-4.33.06-8,.17-5.87.17-6.75.17c-1,0-3.52,0-7.41-.17s-6.65-.17-8.26-.17c-1.93,0-2.89.31-2.89.92s.7,1.14,2.11,1.14a18.81,18.81,0,0,1,4.16.46c2.49.6,3.85,2.74,4.09,6.4q.24,3.76.25,24.22v20.12q0,19.88-.61,25t-3.5,5.66c-1.2.08-2.4.19-3.61.34-1.77.16-2.65.5-2.65,1,0,.76.8,1.14,2.41,1.14q2.65,0,8.38-.17t6.81-.17q1.08,0,7.65.17c4.38.11,8.09.17,11.15.17,1.52,0,2.29-.38,2.29-1.14s-.64-.91-1.91-.91"/><path class="cls-1" d="M769.2,168.61c0-.69-.92-1-2.77-1q-3.49,0-7.59.17l-4.22.17c-.57,0-2.54,0-5.91-.17s-6.27-.17-8.68-.17c-2.09,0-3.13.34-3.13,1s.64,1,1.92,1a20.24,20.24,0,0,1,6.39.68,6.16,6.16,0,0,1,3.62,4.46,35.85,35.85,0,0,1,.48,5.83l1.21,51.32h-.6q-14.24-14-26.52-26.06Q695.92,179.23,686,169.18q-3.49-3.54-4.46-3.54c-1,0-1.48,1.3-1.57,3.88l-1.08,67.66a63.5,63.5,0,0,1-.72,10.52c-.49,2-1.49,3.2-3,3.65l-4.22.47c-2.08.14-3.13.49-3.13,1,0,.76.88,1.14,2.65,1.14,2.49,0,5.3,0,8.44-.17l4.58-.17c.32,0,2.12.06,5.42.17s6.46.17,9.52.17c1.85,0,2.77-.38,2.77-1.14,0-.46-1.2-.84-3.61-1.14-2.89-.31-4.46-.5-4.7-.57q-3.87-1.26-4.22-12.69l-1.33-48h.36L698,201.07q10.24,10.52,18.44,18.17,24,22.74,35.56,33.6c1.84,1.67,3.21,2.52,4.09,2.52s1.49-1.19,1.57-3.54L759,179.7a26.89,26.89,0,0,1,.73-6.29q1.32-3.76,7.35-3.77c1.44,0,2.17-.34,2.17-1"/><path class="cls-1" d="M866.22,251.93a24.33,24.33,0,0,1-5.06-.46q-5.55-1.14-10.61-12.46-18.79-43.77-29.89-70.28c-1.12-2.45-2.13-3.67-3-3.67s-2.09,1.53-3.37,4.58L784,241.41a26.25,26.25,0,0,1-4,7.09,9.56,9.56,0,0,1-6.27,3.2,30.29,30.29,0,0,1-3.74.23c-1,0-1.44.3-1.44.91s.76,1.14,2.29,1.14q3.74,0,14.22-.34,1.8,0,6.33.17c3,.11,5.15.17,6.44.17s2-.38,2-1.14-.6-.91-1.8-.91h-1.81q-4.83,0-4.83-3.55a21.16,21.16,0,0,1,1.81-7l6.51-16.34c.24-.61.6-.92,1.09-.92h26.87a1.25,1.25,0,0,1,1.21.8l9.64,24.23c.56,1.38.2,2.25-1.08,2.63-1.13.08-1.69.42-1.69,1s1.2.84,3.62.91q7.81.24,22.77.23a26.31,26.31,0,0,0,4.34-.23c.81-.15,1.2-.45,1.2-.91,0-.61-.51-.91-1.56-.91m-40.74-33.49H803.3c-.47,0-.63-.26-.47-.8l11.08-28.11c.16-.69.41-1,.73-1s.44.35.6,1l10.85,28.22c.16.46-.05.69-.61.69"/><path class="cls-2" d="M183.4,246.81s.8-11.31.8-14.32-1.49-3.64-2.53-3.15c-2.16,1-2.77,5.93-17.51,6.28a56.55,56.55,0,0,1-25.11-5v13.93a107.77,107.77,0,0,0,21.42,3.66,112,112,0,0,0,22.93-1.37"/><path class="cls-2" d="M135.73,233.3c0-2.27-2.18-4.11-4.88-4.11S126,231,126,233.3s2.19,4.11,4.88,4.11,4.88-1.84,4.88-4.11"/><path class="cls-2" d="M224.82,275.93c-5.4-4-13.24-12.95-17.08-24.7s-12.9-15.37-15.69-15c0,0-1.56,6.56,3.49,14.34s19.87,29.89,23,33,14.29,20.56,14.47,27.12c0,0,5.4-5.35-.87-17.61,0,0,12.37,0,11-1.91s-12.89-11.22-18.3-15.2"/><path class="cls-2" d="M179.5,256.07c6.28,11.4,46.89,109.52,48.11,112.8s1.92-1.21,4.54,1.38a5.66,5.66,0,0,0,5.92,1.21L219.6,333.8a742.05,742.05,0,0,0-40.1-77.73"/><path class="cls-2" d="M171.83,272.13c-5.57-17.62-11-20-11-20s24.4,73.41,28.92,90.51,9.43,29.2,8.39,40.25,4.7,13.48,7.84,15.89,9.93,9.68,9.93,9.68-10.28-33.86-12.72-40.6-25.8-78.08-31.38-95.7"/><path class="cls-2" d="M152.31,251.23s-4.88,38.69-5.23,48-2.61,64.95-2.61,84.13,3.66,32.65,4.53,33,3.66-7.42,5.23-16.92.17-54.94-.7-63.23-1.22-85-1.22-85"/><path class="cls-2" d="M107.69,361.44c-3.66,9.5-1,14.34,1,16.59s1-.35,3.66-9.68,10.64-31.61,18.46-57.69S140.63,254,140.63,254s-10.11,32.32-12.37,38.71-16.91,59.25-20.57,68.75"/><path class="cls-2" d="M124.07,261.77c-4.7,6.56-1.74,14-1.74,14,0-2.93,5.58-11.75,7.5-15s1-8.63,1-8.63c-.71,3.28-2.07,3.1-6.78,9.67"/><path class="cls-2" d="M127.21,239.48c-15.69,1.56-18.72,17.48-25.45,31.1a90.08,90.08,0,0,1-29.11,29.88c-7.32,4.67-13.7,11.4-14.12,12.79S73,315.07,73,315.07c-7.7,12.53-1.54,25.64-1.54,25.64.18-7.94,9.59-23,11.51-25.91s19.35-23.15,22.14-29.37S115.53,260.9,120.59,254a42,42,0,0,0,6.62-14.5"/><path class="cls-2" d="M194.34,226.69s-2,2.09.6,4.28,16.65,4.87,19.66,7.35c0,0-14.45-15-20.26-11.63"/><path class="cls-2" d="M236.55,120.44c-3,2.17-10.78,9.81-24.06,30.61A466.4,466.4,0,0,0,183.67,204a7.53,7.53,0,0,0-2.41-7.28c-4.83,7.72.52,11.52.52,11.52-2.78,6.44-4.72,11.79-5.42,15.27a.53.53,0,0,0,1,.3c1.43-3.24,3.76-8.84,6.85-15.8,8.76,1.61,10-5.74,10-5.74-5-.55-7.53,1.29-8.79,3,1.52-3.39,3.2-7,5-10.87,6.71,2.4,11-4.23,11-4.23-4.6-1.79-7.69-.42-9.54,1.19a320.58,320.58,0,0,1,16.77-30.58s18.74-31.08,28-40.18a.12.12,0,0,0-.16-.18"/><path class="cls-2" d="M171,205.52c7.79-1,6.87-7.46,6.87-7.46-7.83,1.55-6.87,7.46-6.87,7.46"/><path class="cls-2" d="M173.2,193.29c8.28-.76,7-8.73,7-8.73-6.29,1.91-7,8.73-7,8.73"/><path class="cls-2" d="M178,174.63c12.59.67,12.19-9.76,12.19-9.76-9.92.6-12.19,9.76-12.19,9.76"/><path class="cls-2" d="M184.4,149.62c12.47,2.13,13.09-9.18,13.09-9.18-9.94-.47-13.09,9.18-13.09,9.18"/><path class="cls-2" d="M197.56,113.45c10.62,4.64,13.68-5.83,13.68-5.83-8.73-2.54-13.68,5.83-13.68,5.83"/><path class="cls-2" d="M203.25,100.62c9.52,3.11,13.67-5.82,13.67-5.82-8.73-2.55-13.67,5.82-13.67,5.82"/><path class="cls-2" d="M210.45,86.13c12.31,2.85,14-5.08,14-5.08-8.58-3-14,5.08-14,5.08"/><path class="cls-2" d="M216.49,73.92c11.64,4.88,14.63-2.66,14.63-2.66-7.94-4.41-14.63,2.66-14.63,2.66"/><path class="cls-2" d="M221.05,65C232.69,69.83,236,61.6,236,61.6,228.07,57.11,221.05,65,221.05,65"/><path class="cls-2" d="M236.3,31.3c-11.22,4.06-11.22,17.48-11.22,17.48C237.32,43.72,236.3,31.3,236.3,31.3"/><path class="cls-2" d="M193,127.86c11.8,4.52,14.65-6.46,14.65-6.46C198,119,193,127.86,193,127.86"/><path class="cls-2" d="M165.93,206.75c1.25-8.15-5.71-9.08-5.71-9.08-.65,8.35,5.71,9.08,5.71,9.08"/><path class="cls-2" d="M168.12,191.61c2.45-9.31-6-11.16-6-11.16-1.73,9.61,6,11.16,6,11.16"/><path class="cls-2" d="M173.1,168.25c5-12.69-4.4-16.66-4.4-16.66-4.26,13.23,4.4,16.66,4.4,16.66"/><path class="cls-2" d="M178.52,149.45c1.51-12.73-8-14.11-8-14.11-.68,13,8,14.11,8,14.11"/><path class="cls-2" d="M183,135.87c1.51-12.73-8-14.11-8-14.11-.69,13,8,14.11,8,14.11"/><path class="cls-2" d="M189.16,121.26c.13-12.82-9.5-13.18-9.5-13.18.73,13,9.5,13.18,9.5,13.18"/><path class="cls-2" d="M194.11,109c.13-12.82-9.5-13.18-9.5-13.18.73,13,9.5,13.18,9.5,13.18"/><path class="cls-2" d="M199.45,94.61c.13-12.82-9.5-13.18-9.5-13.18.73,13,9.5,13.18,9.5,13.18"/><path class="cls-2" d="M204.7,82.4c.12-12.82-9.5-13.18-9.5-13.18.73,13,9.5,13.18,9.5,13.18"/><path class="cls-2" d="M207.4,72.34c5.2-11.74-3.51-15.82-3.51-15.82-4.5,12.27,3.51,15.82,3.51,15.82"/><path class="cls-2" d="M214.26,60.05c5.51-12.47-3.73-16.8-3.73-16.8-4.78,13,3.73,16.8,3.73,16.8"/><path class="cls-2" d="M185.32,181.71c-4.28,7.5,2.81,12.42,2.81,12.42,3.18-10.11-2.81-12.42-2.81-12.42"/><path class="cls-2" d="M195.24,177.59c5.07-9.32-.36-12.71-.36-12.71-5.65,6.55.36,12.71.36,12.71"/><path class="cls-2" d="M203.49,163c3.43-10-2.5-12.48-2.5-12.48-4.46,7.39,2.5,12.48,2.5,12.48"/><path class="cls-2" d="M209,138.15c-4.47,7.4,2.49,12.48,2.49,12.48,3.44-10-2.49-12.48-2.49-12.48"/><path class="cls-2" d="M220.24,138.81c3.44-10-2.5-12.48-2.5-12.48-4.46,7.39,2.5,12.48,2.5,12.48"/><path class="cls-2" d="M226.34,113.87c-4.46,7.4,2.5,12.48,2.5,12.48,3.43-10-2.5-12.48-2.5-12.48"/><path class="cls-2" d="M251.94,104.57c-12,3.3-13.58,13.84-13.58,13.84,12.62-3.72,13.58-13.84,13.58-13.84"/><path class="cls-2" d="M198.05,181.13c7.53,3.87,12.39-4.8,12.39-4.8-8.8-4-12.39,4.8-12.39,4.8"/><path class="cls-2" d="M235.38,126.93c6.49,4.07,11.56-3.39,11.56-3.39-7.64-4.26-11.56,3.39-11.56,3.39"/><path class="cls-2" d="M223.06,158.65c-9.21-2.38-13.52,6-13.52,6,8.36,3.71,13.52-6,13.52-6"/><path class="cls-2" d="M233,145c-7.83-3.7-13.13,3-13.13,3,6.83,4.74,13.13-3,13.13-3"/><path class="cls-2" d="M239.51,134c-7.83-3.69-13.13,3-13.13,3,6.84,4.74,13.13-3,13.13-3"/><path class="cls-2" d="M239.51,93.55S233.79,111.43,233,117c0,0,7.48-8.14,6.51-23.49"/><path class="cls-2" d="M241.77,120.42c7-.36,19.67-8.94,19.67-8.94-11.18-.21-19.67,8.94-19.67,8.94"/><path class="cls-2" d="M253.62,103.69c4.85.67,12.12-8.67,12.12-8.67-7.94.93-12.12,8.67-12.12,8.67"/><path class="cls-2" d="M251.25,14.72c-3.93,1-6.56,3-9,7.3a42.3,42.3,0,0,1-4.09,6c4.85.67,13.11-13.31,13.11-13.31"/><path class="cls-2" d="M165.21,229.19c1.78,5.05,5.23-13.17,5.17-21.35-.07-8.83,2.94-18.5,2.94-18.5,11-60.21,50.34-135.22,50.82-136.73s-1.08-.77-1.08-.77c-11.24,13.64-36.35,74.72-46.72,113.63s-11.13,63.72-11.13,63.72"/><path class="cls-2" d="M240.6,48.78c3.74-4.14,10.65-8.74,10.65-8.74s-18.55,6.23-22.74,17.24c0,0,8.34-4.36,12.09-8.5"/><path class="cls-2" d="M218.29,22.92S216.64,41.46,219.94,51c0,0,4.26-15.67-1.65-28.08"/><path class="cls-2" d="M161.45,24.12c-9.15,7.61-4.54,20.22-4.54,20.22,9.77-8.9,4.54-20.22,4.54-20.22"/><path class="cls-2" d="M169.26,6.14c-3.1,2.16-4.78,4.73-5.55,9.3a39.94,39.94,0,0,1-1.65,6.6c4.47-.93,7.2-15.9,7.2-15.9"/><path class="cls-2" d="M169.1,35.05c1.89-4.76,6.35-10.93,6.35-10.93s-14,11.28-14,22.11c0,0,5.77-6.42,7.66-11.18"/><path class="cls-2" d="M142,20.82s3.63,17.06,8.64,26.48c0,0-.15-16.52-8.64-26.48"/><path class="cls-2" d="M150.64,104.57c.35,25.07.93,42.12,3.3,57.25-.67-1.84-2.26-3.92-5.83-5.62,0,0-2.55,7.9,5.93,10.08a6,6,0,0,0,.32-1.91c.31,1.82.65,3.61,1,5.4,0,0,1.87,11.31,3.38,16.15a.79.79,0,0,0,1.53-.34c-.6-4.12-2-13.23-3-20,9.75-2.5,6.82-11.59,6.82-11.59-5.89,2.79-7.12,6.53-7.19,9-.06-.41-.12-.81-.17-1.18-1.36-10.1-4.08-53.43-3.81-75.11a276.61,276.61,0,0,1,3.61-40.33,22.65,22.65,0,0,0-2.61,7.78c-.61,4.51-3.71,20.82-3.3,50.38"/><path class="cls-2" d="M168.35,46.42c-11.7,2.8-9.65,10.1-9.65,10.1,11.36-.38,9.65-10.1,9.65-10.1"/><path class="cls-2" d="M158,70.4c11.36-.37,9.66-10.1,9.66-10.1C155.93,63.1,158,70.4,158,70.4"/><path class="cls-2" d="M156.59,85.23c11.36-.37,9.65-10.1,9.65-10.1-11.7,2.8-9.65,10.1-9.65,10.1"/><path class="cls-2" d="M164.35,93.92c-10.78,5.29-7.81,15.25-7.81,15.25,11-2.85,7.81-15.25,7.81-15.25"/><path class="cls-2" d="M163.24,117.56c-10.78,5.28-7.55,13.69-7.55,13.69,11-2.84,7.55-13.69,7.55-13.69"/><path class="cls-2" d="M155.84,148.63c9.75-2.5,6.82-11.6,6.82-11.6-9.6,4.56-6.82,11.6-6.82,11.6"/><path class="cls-2" d="M144,139.15s-2.19,8.64,7.93,10.46c0,0,2.2-6.72-7.93-10.46"/><path class="cls-2" d="M141.85,115.53s-2.79,12.07,8.19,14.13c0,0,2.72-9.4-8.19-14.13"/><path class="cls-2" d="M149,110.13s1.77-8.87-9.55-12.32c0,0-1.58,11.33,9.55,12.32"/><path class="cls-2" d="M149.41,93.81s1.77-8.87-9.55-12.32c0,0-1.57,11.32,9.55,12.32"/><path class="cls-2" d="M150.37,76.42s1.77-8.87-9.55-12.32c0,0-1.58,11.32,9.55,12.32"/><path class="cls-2" d="M142,47.3s-1.24,11.37,9.92,12c0,0,1.49-8.92-9.92-12"/><path class="cls-2" d="M81.36,60.52A18.92,18.92,0,0,0,68.42,43c0,12.62,12.94,17.52,12.94,17.52"/><path class="cls-2" d="M66.87,40.93a46.65,46.65,0,0,1-4.09-6.35,16.17,16.17,0,0,0-9.9-8.28s9.22,15.39,14,14.63"/><path class="cls-2" d="M84,43c-2.28-5.81-3.42-15-3.42-15s-3.16,21.4,5.87,31.21c0,0-.17-10.44-2.45-16.25"/><path class="cls-2" d="M52.87,48.78A273.36,273.36,0,0,0,78.15,66.19S65.93,50.49,52.87,48.78"/><path class="cls-2" d="M60.8,111.7S58,99.54,47,98.15c0,0,1.65,11.46,13.8,13.55"/><path class="cls-2" d="M45.47,96.83a39,39,0,0,1-4.64-4.34c-2.91-3.19-5.52-4.36-9-4.51,0,0,9.72,10.35,13.69,8.85"/><path class="cls-2" d="M36.06,105.12a60.43,60.43,0,0,1,10.5,5.38c3.89,2.78,11.66,4.92,11.66,4.92-5.52-8.45-22.16-10.3-22.16-10.3"/><path class="cls-2" d="M60.56,85.87c-1.6,12,6.67,25,6.67,25-.87-9.86-6.67-25-6.67-25"/><path class="cls-2" d="M65.57,122.11s-2.1-6.73-12.67-3.1c0,0,3.6,8.46,12.67,3.1"/><path class="cls-2" d="M60.51,129.5s3.59,8.46,12.66,3.1c0,0-2.1-6.73-12.66-3.1"/><path class="cls-2" d="M81.77,143.5s-2.1-6.73-12.66-3.1c0,0,3.59,8.46,12.66,3.1"/><path class="cls-2" d="M93.94,162.18s-2.72-9.26-13.84-8c0,0,3.8,11.28,13.84,8"/><path class="cls-2" d="M105.8,179s-1.74-8.19-12.85-6.95c0,0,2.81,10.2,12.85,6.95"/><path class="cls-2" d="M114.49,192.68s-1.4-6.88-11.21-5.67c0,0,2.31,8.57,11.21,5.67"/><path class="cls-2" d="M122,206.69c2.64,5.74,6.14,13.58,7.76,17.1a.73.73,0,0,0,1.36-.5c-1.27-4.53-5.54-14.31-5.54-14.31-.61-1.58-1.25-3.15-1.93-4.73a5.72,5.72,0,0,0,1.22,1.34c5.52-5.93-.47-10.83-.47-10.83-1.93,3.1-2.13,5.52-1.71,7.29-5.82-13-14-26.62-26.44-46.4-14.66-23.3-25.35-34.51-28.11-37.73a21.13,21.13,0,0,0-6-4.78,259.69,259.69,0,0,1,23.26,29.73c11.2,16.8,31,52,35.08,60.6l.47,1c-1.3-1.9-4.15-4.2-10.17-3.46,0,0,2.31,8.57,11.2,5.67"/><path class="cls-2" d="M118.06,191.49c7-6.45.9-12.13.9-12.13-6,8-.9,12.13-.9,12.13"/><path class="cls-2" d="M108.65,159.85c-6.14,9.12.75,15.12.75,15.12,7.54-7.08-.75-15.12-.75-15.12"/><path class="cls-2" d="M100.32,159.19c8.2-6.32,1.23-14.39,1.23-14.39-7.11,8.34-1.23,14.39-1.23,14.39"/><path class="cls-2" d="M91.73,146.63c8.19-6.31,1.22-14.38,1.22-14.38-7.1,8.33-1.22,14.38-1.22,14.38"/><path class="cls-2" d="M82.17,133.51c8.19-6.31,1.22-14.38,1.22-14.38-7.1,8.33-1.22,14.38-1.22,14.38"/><path class="cls-2" d="M72.29,120.93c8.38-6.06,1.66-14.34,1.66-14.34-7.36,8.12-1.66,14.34-1.66,14.34"/><path class="cls-2" d="M149.76,231.67c.07-7.61-1.75-42.31-35.28-111.56,0,0-18.77-43.69-30.52-56L83.65,64a.62.62,0,0,0-.71.94,80.43,80.43,0,0,1,5.62,8.53c1.73,3.45,25.17,47.84,40.36,89.5s13.2,40.27,15.55,48a47.58,47.58,0,0,1,1.18,5.2,9.39,9.39,0,0,0-9.37-7.26c.55,11.61,9.84,10.23,9.84,10.23l0-.37c.82,5.21,1.42,10.63,2.39,13.12a.66.66,0,0,0,1.28-.23"/><path class="cls-2" d="M93.83,71.32c9.1-7.84,1.07-17.24,1.07-17.24C86,66,93.83,71.32,93.83,71.32"/><path class="cls-2" d="M99.4,81.7c11.09-4.66,6.41-16.06,6.41-16.06C93.64,74.23,99.4,81.7,99.4,81.7"/><path class="cls-2" d="M104.31,94.16c11.09-4.66,6.4-16.06,6.4-16.06-12.16,8.59-6.4,16.06-6.4,16.06"/><path class="cls-2" d="M111.24,105.79c11.1-4.66,6.41-16.07,6.41-16.07-12.17,8.6-6.41,16.07-6.41,16.07"/><path class="cls-2" d="M116.57,119.18c11.09-4.66,6.4-16.06,6.4-16.06-12.16,8.59-6.4,16.06-6.4,16.06"/><path class="cls-2" d="M122.1,133.29c11.09-4.66,6.4-16.06,6.4-16.06-12.16,8.59-6.4,16.06-6.4,16.06"/><path class="cls-2" d="M128.59,146.24c11.09-4.66,6.4-16.06,6.4-16.06-12.16,8.59-6.4,16.06-6.4,16.06"/><path class="cls-2" d="M133.82,159.42c11.09-4.65,6.4-16,6.4-16-12.16,8.58-6.4,16-6.4,16"/><path class="cls-2" d="M140.77,179.41c11.19-4.43,6.74-15.93,6.74-15.93-12.34,8.34-6.74,15.93-6.74,15.93"/><path class="cls-2" d="M144.26,191.13c10.08-3.95,6.8-12.42,6.8-12.42-11,4.08-6.8,12.42-6.8,12.42"/><path class="cls-2" d="M156.12,205.94c-11,4.08-6.8,12.43-6.8,12.43,10.09-4,6.8-12.43,6.8-12.43"/><path class="cls-2" d="M142.32,203.93c-.7-10.72-9.83-10.23-9.83-10.23.53,11.61,9.83,10.23,9.83,10.23"/><path class="cls-2" d="M70.58,74.87s7.74,8.48,15.67.67c0,0-5.72-7-15.67-.67"/><path class="cls-2" d="M76.73,84.45s7.74,8.47,15.67.67c0,0-5.72-7.05-15.67-.67"/><path class="cls-2" d="M83,92.66s6,9.78,15.25,3.61c0,0-4.26-8-15.25-3.61"/><path class="cls-2" d="M89.46,104.55s7.48,11.76,16.22,6.07c0,0-5.47-9.53-16.22-6.07"/><path class="cls-2" d="M96.19,118s7.49,11.76,16.23,6.07c0,0-5.48-9.53-16.23-6.07"/><path class="cls-2" d="M101.29,131.68s7.49,11.75,16.23,6.06c0,0-5.48-9.53-16.23-6.06"/><path class="cls-2" d="M111.45,148.71s4.3,14.88,14.67,11.83c0,0-2.88-11.86-14.67-11.83"/><path class="cls-2" d="M135.22,184.43S134.51,173.32,122,175c0,0,2.87,12.52,13.25,9.46"/><path class="cls-2" d="M63.47,145.77l-1.75-1.08C39.1,165.07,26.58,187.48,26.58,211c0,21.86,10.83,42.78,30.54,62l.23-2.58C38.89,251.91,28.77,231.89,28.77,211c0-23.12,12.37-45.16,34.7-65.21"/><path class="cls-2" d="M470.43,39.77c-80.85,0-156.71,8.35-222.07,22.93L247.79,65c65.41-14.61,141.5-23,222.64-23C714,42,912.08,117.49,912.08,210.33S714,378.71,470.43,378.71c-82.23,0-159.28-8.62-225.28-23.6v2.14c66.08,15,143.11,23.64,225.28,23.64,244.74,0,443.84-76.51,443.84-170.56S715.17,39.77,470.43,39.77"/><path class="cls-2" d="M14.85,221.9c0-28.58,15.1-55.72,42.15-80.11l-5.48-3.36C23.39,164.19,8.57,192.52,8.57,221.9c0,30.24,15.72,59.38,45.49,85.75l.68-7.72c-25.63-23.85-39.89-50.26-39.89-78"/><path class="cls-2" d="M804.8,80.18c-88-37.07-204.92-57.5-329.23-57.5-79.24,0-155.47,8.3-223.12,23.92l-1.73,6.83C317.26,37.82,394,28.92,475.57,28.92c254.05,0,460.73,86.29,460.73,192.36S729.62,413.64,475.57,413.64c-83.88,0-162.6-9.41-230.42-25.83v6.43C314.6,411,393.47,419.88,475.57,419.88c124.31,0,241.23-20.42,329.23-57.5,88.84-37.44,137.77-87.55,137.77-141.1S893.64,117.63,804.8,80.18"/><path class="cls-1" d="M917.75,77.11a7.7,7.7,0,0,1-1.06,4,8,8,0,0,1-6.89,4,7.87,7.87,0,0,1-4-1.07,7.79,7.79,0,0,1-2.92-2.89,7.52,7.52,0,0,1-1.07-3.91,7.95,7.95,0,0,1,4-6.87,7.93,7.93,0,0,1,4-1.06,7.94,7.94,0,0,1,8,7.89m-1.1,0a6.86,6.86,0,0,0-3.43-5.92,6.67,6.67,0,0,0-3.4-.91,6.87,6.87,0,0,0-3.45.91,6.67,6.67,0,0,0-2.52,2.51,6.8,6.8,0,0,0-.92,3.42,6.65,6.65,0,0,0,.92,3.4,6.75,6.75,0,0,0,2.53,2.5,6.94,6.94,0,0,0,3.44.91,6.83,6.83,0,0,0,6.83-6.82m-10.17-4.61h3.82a5,5,0,0,1,1.93.27,2.11,2.11,0,0,1,1,.87,2.68,2.68,0,0,1,.37,1.4,2.47,2.47,0,0,1-.27,1.2,2.51,2.51,0,0,1-.88.81,1.87,1.87,0,0,1,.83.7,3.19,3.19,0,0,1,.21,1.37v1a2.1,2.1,0,0,0,.33,1.21l.15.24h-1.62a6.68,6.68,0,0,1-.22-1.34L912,79.14a2,2,0,0,0-.2-.86.92.92,0,0,0-.45-.37,3.9,3.9,0,0,0-1.14-.11h-2.3v3.8h-1.45Zm1.45,1.31v2.69h2.25a2.91,2.91,0,0,0,1.39-.23,1.47,1.47,0,0,0,.15-2.14,2.31,2.31,0,0,0-1.45-.32Z"/></svg>